<svg xmlns="http://www.w3.org/2000/svg" xmlns:xlink="http://www.w3.org/1999/xlink" xmlns:inkscape="http://www.inkscape.org/namespaces/inkscape" version="1.1" width="204" height="132" viewBox="0 0 204 132">
<defs>
<path id="font_1_1" d="M.28399659 .36465455H.39898683C.37799073 .2738037 .3600006 .19992066 .3600006 .1260376 .3600006 .11904907 .3600006 .0761261 .37098695 .04017639 .38398744-.0017700195 .3939972-.009765625 .4119873-.009765625 .43399049-.009765625 .45700074 .009231567 .45700074 .033187868 .45700074 .04017639 .45599366 .042175294 .45199586 .05116272 .43099977 .097091678 .41600038 .14500427 .41600038 .22688294 .41600038 .24984741 .41600038 .29177857 .43099977 .36465455H.5519867C.56799319 .36465455 .57899478 .36465455 .58898928 .37265016 .6009979 .38365174 .60398867 .39665223 .60398867 .40264894 .60398867 .43066407 .57899478 .43066407 .56199648 .43066407H.20098877C.17999268 .43066407 .14199829 .43066407 .09298706 .3826599 .056991579 .3466797 .0289917 .300766 .0289917 .29377748 .0289917 .28479005 .035995485 .28178407 .04399109 .28178407 .053985597 .28178407 .055999757 .28479005 .06199646 .2927704 .11099243 .36465455 .16999817 .36465455 .19299317 .36465455H.25099183C.22200012 .25883485 .16899109 .13801575 .13198853 .06513977 .125 .0501709 .114990238 .030197144 .114990238 .021209717 .114990238 .00022888184 .13198853-.009765625 .147995-.009765625 .18598938-.009765625 .19599915 .028198243 .21699524 .110061649L.28399659 .36465455Z"/>
<path id="font_2_1" d="M.28199769 .20405579C.2979889 .21907044 .33999635 .2520752 .35598756 .26608277 .41799928 .32312013 .47698976 .3781433 .47698976 .46917726 .47698976 .588089 .3769989 .66503909 .2519989 .66503909 .13198853 .66503909 .052993776 .57411196 .052993776 .48516847 .052993776 .4361725 .09199524 .4291687 .10598755 .4291687 .1269989 .4291687 .1579895 .4441681 .1579895 .48217774 .1579895 .5341797 .10798645 .5341797 .09599304 .5341797 .125 .6070709 .19198609 .6320343 .24099732 .6320343 .33399964 .6320343 .38198854 .55314639 .38198854 .46917726 .38198854 .36514283 .30899049 .28910829 .19099427 .16804505L.06498718 .037994386C.052993776 .026992798 .052993776 .024993897 .052993776 0H.44799806L.47698976 .17904663H.44599916C.44299317 .1590271 .43499757 .10900879 .4229889 .08999634 .4169922 .08198547 .34098817 .08198547 .32499696 .08198547H.14698792L.28199769 .20405579Z"/>
<path id="font_3_1" d="M.2649994 .37265016H.37799073C.34498597 .22489929 .33599855 .18196106 .33599855 .11508179 .33599855 .100097659 .33599855 .073150638 .34399415 .03919983 .35398866-.0047454836 .36499024-.0107421879 .37998963-.0107421879 .3999939-.0107421879 .42099 .007247925 .42099 .02722168 .42099 .033218385 .42099 .035202028 .4149933 .049179079 .38598634 .12106323 .38598634 .18595886 .38598634 .21391297 .38598634 .26683045 .3929901 .32073976 .4039917 .37265016H.5179901C.5309906 .37265016 .5669861 .37265016 .5669861 .406662 .5669861 .43066407 .54599 .43066407 .5269928 .43066407H.19198609C.16999817 .43066407 .13198853 .43066407 .08799744 .38365174 .052993776 .34469605 .026992798 .29878236 .026992798 .29379273 .026992798 .29278565 .026992798 .28379823 .038986207 .28379823 .04699707 .28379823 .04899597 .28779603 .054992677 .29577638 .10398865 .37265016 .1619873 .37265016 .18199158 .37265016H.23899842C.20698548 .25186158 .15299988 .13105774 .11099243 .04020691 .102996829 .025222779 .102996829 .023223877 .102996829 .016235352 .102996829-.002746582 .11898804-.0107421879 .13198853-.0107421879 .1619873-.0107421879 .16999817 .017242432 .18199158 .05418396 .19599915 .100097659 .19599915 .10209656 .20899964 .15202332L.2649994 .37265016Z"/>
<path id="font_2_2" d="M.25299073 .33370973C.33198548 .33370973 .38198854 .27557374 .38198854 .17037964 .38198854 .045440675 .31098939 .008514404 .2579956 .008514404 .20298767 .008514404 .12799073 .0284729 .09298706 .08137512 .1289978 .08137512 .1539917 .10437012 .1539917 .13737488 .1539917 .16937256 .1309967 .19238281 .09899902 .19238281 .07199097 .19238281 .04399109 .17536927 .04399109 .13537598 .04399109 .04045105 .1459961-.021484375 .2599945-.021484375 .3929901-.021484375 .48599244 .070388797 .48599244 .17037964 .48599244 .25352479 .41999818 .32969667 .31799317 .3517456 .39698792 .37982179 .45599366 .4479828 .45599366 .52804568 .45599366 .6080475 .3659973 .66503909 .2619934 .66503909 .15499878 .66503909 .07398987 .6070404 .07398987 .53105166 .07398987 .49404908 .09899902 .4780426 .125 .4780426 .1559906 .4780426 .17599488 .5000458 .17599488 .52905276 .17599488 .56604006 .14399719 .5800476 .12199402 .5810547 .1639862 .6360321 .24099732 .6390381 .25898744 .6390381 .2849884 .6390381 .36099244 .6310272 .36099244 .52804568 .36099244 .45799256 .33198548 .41589356 .31799317 .39985658 .28799439 .36878968 .2649994 .36679078 .20399475 .3627777 .18499756 .36177064 .1769867 .36076356 .1769867 .3477478 .1769867 .33370973 .18598938 .33370973 .20298767 .33370973H.25299073Z"/>
<path id="font_4_2" d="M.1269989 .07699585 .23298645 .18003845C.3889923 .31811524 .44898988 .3721466 .44898988 .47216798 .44898988 .5860901 .35899354 .6660156 .23699951 .6660156 .12399292 .6660156 .049987794 .57411196 .049987794 .48516847 .049987794 .4291687 .099990848 .4291687 .102996829 .4291687 .11999512 .4291687 .15499878 .44117738 .15499878 .48217774 .15499878 .5081787 .13699341 .5341797 .101989749 .5341797 .09399414 .5341797 .09199524 .5341797 .08898926 .5331726 .11199951 .59806826 .1659851 .63500979 .22399903 .63500979 .31498719 .63500979 .35798646 .5541382 .35798646 .47216798 .35798646 .39215089 .30799867 .31311036 .25299073 .25108338L.06098938 .036987306C.049987794 .025985718 .049987794 .023986817 .049987794 0H.42099L.44898988 .17404175H.42399598C.4189911 .14402771 .4119873 .1000061 .4019928 .084991458 .394989 .07699585 .32899476 .07699585 .30699159 .07699585H.1269989Z"/>
<path id="font_2_3" d="M.13999939 .5618439C.15299988 .55784609 .19299317 .54785159 .23498535 .54785159 .3600006 .54785159 .43598939 .6358948 .43598939 .6510315 .43598939 .6620331 .42900086 .66503909 .42399598 .66503909 .42199708 .66503909 .41999818 .66503909 .41099549 .6600342 .37199403 .6450348 .32598878 .632843 .27198792 .632843 .21299744 .632843 .1639862 .6480255 .1329956 .6600342 .12298584 .66503909 .12098694 .66503909 .11999512 .66503909 .10699463 .66503909 .10699463 .6540375 .10699463 .6358948V.34292604C.10699463 .32492066 .10699463 .312912 .12298584 .312912 .1309967 .312912 .13398743 .3169098 .13899231 .32492066 .15098572 .33992005 .18899536 .39093019 .27398683 .39093019 .32998658 .39093019 .35699464 .34492494 .3659973 .32591249 .3829956 .28990174 .3849945 .24389649 .3849945 .20487976 .3849945 .1678772 .38398744 .11387634 .35598756 .069732669 .33699037 .039611818 .29699708 .008514404 .24398804 .008514404 .1789856 .008514404 .114990238 .0496521 .09199524 .11488342 .09498596 .11387634 .100997928 .11387634 .101989749 .11387634 .12998963 .11387634 .1519928 .13188172 .1519928 .16288758 .1519928 .19989014 .12298584 .21289063 .102996829 .21289063 .084991458 .21289063 .052993776 .20288086 .052993776 .15988159 .052993776 .069732669 .1309967-.021484375 .24598694-.021484375 .37098695-.021484375 .47698976 .07574463 .47698976 .19989014 .47698976 .31591798 .3929901 .4189453 .2749939 .4189453 .22499085 .4189453 .17799378 .40293885 .13999939 .368927V.5618439Z"/>
<path id="font_4_3" d="M.2899933 .35191346C.37199403 .37893678 .42999269 .4490509 .42999269 .52809146 .42999269 .6100464 .34199525 .6660156 .24598694 .6660156 .14498902 .6660156 .068984989 .60606387 .068984989 .53009036 .068984989 .49710084 .09098816 .47808839 .11999512 .47808839 .15098572 .47808839 .17098999 .50009158 .17098999 .5290985 .17098999 .57910159 .12399292 .57910159 .10899353 .57910159 .13999939 .62802127 .20599365 .64100649 .24198914 .64100649 .2829895 .64100649 .33799745 .6190338 .33799745 .5290985 .33799745 .51708987 .33599855 .45906068 .30999757 .4149933 .27999879 .36691285 .24598694 .36390687 .22099304 .36291505 .21299744 .36190797 .18899536 .35990907 .18199158 .35990907 .17399597 .35890199 .16699219 .35791017 .16699219 .3479004 .16699219 .33691407 .17399597 .33691407 .19099427 .33691407H.23498535C.31698609 .33691407 .35398866 .2686615 .35398866 .17037964 .35398866 .034469606 .2849884 .0055389406 .24099732 .0055389406 .19799805 .0055389406 .12298584 .022491456 .08799744 .08137512 .12298584 .07637024 .1539917 .09837341 .1539917 .1363678 .1539917 .17237854 .1269989 .19238281 .09799194 .19238281 .07398987 .19238281 .041992189 .17837525 .041992189 .1343689 .041992189 .043441774 .1349945-.022460938 .24398804-.022460938 .3659973-.022460938 .45700074 .06838989 .45700074 .17037964 .45700074 .252594 .3939972 .33088685 .2899933 .35191346Z"/>
<path id="font_2_4" d="M.5059967 .608551C.5149994 .6195526 .5149994 .6215515 .5149994 .6435547H.26098634C.23599243 .6435547 .20498657 .64456179 .17999268 .64660647 .12799073 .65068057 .1269989 .6597748 .12399292 .67578127H.09298706L.05899048 .46453858H.08999634C.09199524 .47953797 .102996829 .54855349 .116989139 .5565491 .12799073 .56155398 .20298767 .56155398 .21798706 .56155398H.42999269L.32699586 .4235382C.21299744 .27153016 .18899536 .11351013 .18899536 .03451538 .18899536 .024505616 .18899536-.021484375 .23599243-.021484375 .2829895-.021484375 .2829895 .023513794 .2829895 .035507204V.08351135C.2829895 .2275238 .30699159 .34553529 .35598756 .41053773L.5059967 .608551Z"/>
<path id="font_4_4" d="M.2939911 .16503906V.07800293C.2939911 .041992189 .2919922 .0309906 .21798706 .0309906H.19699097V0C.23799134 .0029907227 .2899933 .0029907227 .33198548 .0029907227 .37399293 .0029907227 .4269867 .0029907227 .46798707 0V.0309906H.44699098C.37298585 .0309906 .37098695 .041992189 .37098695 .07800293V.16503906H.47099305V.19602967H.37098695V.65075686C.37098695 .67074587 .37098695 .6767578 .35499574 .6767578 .34599305 .6767578 .34298707 .6767578 .33499146 .66474917L.027999878 .19602967V.16503906H.2939911M.2999878 .19602967H.055999757L.2999878 .5688019V.19602967Z"/>
<path id="font_5_1" d="M.6589966 .23046875C.6759949 .23046875 .69400027 .23046875 .69400027 .25045777 .69400027 .27046205 .6759949 .27046205 .6589966 .27046205H.117996219C.100997928 .27046205 .08299255 .27046205 .08299255 .25045777 .08299255 .23046875 .100997928 .23046875 .117996219 .23046875H.6589966Z"/>
<path id="font_4_1" d="M.2939911 .64004519C.2939911 .66400149 .2939911 .6660156 .2709961 .6660156 .20899964 .60227969 .12098694 .60227969 .08898926 .60227969V.57128909C.10899353 .57128909 .16799927 .57128909 .21998596 .5972748V.07902527C.21998596 .042999269 .21699524 .0309906 .1269989 .0309906H.09498596V0C.12998963 .0029907227 .21699524 .0029907227 .25698854 .0029907227 .29699708 .0029907227 .38398744 .0029907227 .4189911 0V.0309906H.3869934C.29699708 .0309906 .2939911 .041992189 .2939911 .07902527V.64004519Z"/>
<clipPath id="clip_6">
<path transform="matrix(.800048,0,0,-.800072,16.399285,130.28742)" d="M0 0H233.1272V161.39636H0Z"/>
</clipPath>
<path id="font_3_2" d="M.20599365 .3996582H.2999878C.31999208 .3996582 .32998658 .3996582 .32998658 .41966249 .32998658 .43066407 .31999208 .43066407 .3019867 .43066407H.21398926C.25 .5724945 .25498963 .59246829 .25498963 .59846499 .25498963 .61546328 .24299622 .62545779 .22599793 .62545779 .22299195 .62545779 .19499207 .62446597 .18598938 .58947756L.14698792 .43066407H.052993776C.032989503 .43066407 .022994996 .43066407 .022994996 .4116516 .022994996 .3996582 .0309906 .3996582 .050994874 .3996582H.13899231C.066986087 .11608887 .06298828 .099121097 .06298828 .08114624 .06298828 .02722168 .100997928-.0107421879 .15499878-.0107421879 .25698854-.0107421879 .31399537 .13505554 .31399537 .14305115 .31399537 .1530304 .30599977 .1530304 .3019867 .1530304 .29299928 .1530304 .2919922 .15003968 .2869873 .13905335 .24398804 .035217287 .19099427 .011245728 .15699768 .011245728 .13598633 .011245728 .12599182 .024230957 .12599182 .057174684 .12599182 .08114624 .12799073 .088134769 .13198853 .10510254L.20599365 .3996582Z"/>
<path id="font_3_3" d="M.48599244 .38136292C.48999024 .39537049 .48999024 .39736939 .48999024 .40437318 .48999024 .42237855 .47599793 .43138124 .46099855 .43138124 .45098878 .43138124 .43499757 .42536927 .42599488 .41036988 .42399598 .405365 .41600038 .37435914 .4119873 .35635377 .40499879 .33035279 .397995 .30334474 .3919983 .27633668L.34700013 .09628296C.34298707 .08126831 .2999878 .011245728 .23399353 .011245728 .18299866 .011245728 .17199707 .055267335 .17199707 .0922699 .17199707 .1382904 .18899536 .20030213 .22299195 .28833009 .23899842 .3293457 .24299622 .3403473 .24299622 .36035157 .24299622 .405365 .21099854 .4423828 .16099549 .4423828 .06599426 .4423828 .0289917 .29733277 .0289917 .28833009 .0289917 .27833558 .038986207 .27833558 .040985109 .27833558 .050994874 .27833558 .051986696 .28033448 .056991579 .29634095 .083999637 .3903656 .12399292 .42037965 .1579895 .42037965 .1659851 .42037965 .18299866 .42037965 .18299866 .3883667 .18299866 .36335755 .17298889 .3373413 .1659851 .31834413 .12599182 .21231079 .10798645 .1552887 .10798645 .10827637 .10798645 .019256592 .17098999-.0107421879 .22999573-.0107421879 .2689972-.0107421879 .30299378 .0062561037 .33099366 .03425598 .31799317-.017745972 .30599977-.06674194 .2659912-.11973572 .23999024-.15385437 .20199585-.18309021 .1559906-.18309021 .14199829-.18309021 .09700012-.18005371 .07998657-.14074707 .09599304-.14074707 .10899353-.14074707 .12298584-.1287384 .1329956-.11973572 .14299011-.10673523 .14299011-.08773804 .14299011-.056747438 .115997318-.052734376 .10598755-.052734376 .08299255-.052734376 .049987794-.068740848 .049987794-.11773682 .049987794-.16796875 .09399414-.20507813 .1559906-.20507813 .25898744-.20507813 .3619995-.11373901 .3899994-.00074768069L.48599244 .38136292Z"/>
</defs>
<path transform="matrix(.800048,0,0,-.800072,16.399285,130.28742)" stroke-width=".3985" stroke-linecap="butt" stroke-miterlimit="10" stroke-linejoin="miter" fill="none" stroke="#bfbfbf" d="M26.1567 0V161.39636M52.3136 0V161.39636M78.47043 0V161.39636M104.62721 0V161.39636M130.78269 0V161.39636M156.94084 0V161.39636M183.09642 0V161.39636M209.25446 0V161.39636"/>
<path transform="matrix(.800048,0,0,-.800072,16.399285,130.28742)" stroke-width=".3985" stroke-linecap="butt" stroke-miterlimit="10" stroke-linejoin="miter" fill="none" stroke="#bfbfbf" d="M0 20.17455H233.1272M0 40.34909H233.1272M0 60.52364H233.1272M0 100.87273H233.1272M0 121.04727H233.1272M0 141.22182H233.1272"/>
<path transform="matrix(.800048,0,0,-.800072,16.399285,130.28742)" stroke-width=".19925" stroke-linecap="butt" stroke-miterlimit="10" stroke-linejoin="miter" fill="none" stroke="#7f807f" d="M26.1567 78.57219V82.82414M52.3136 78.57219V82.82414M78.47043 78.57219V82.82414M104.62721 78.57219V82.82414M130.78269 78.57219V82.82414M156.94084 78.57219V82.82414M183.09642 78.57219V82.82414M209.25446 78.57219V82.82414"/>
<path transform="matrix(.800048,0,0,-.800072,16.399285,130.28742)" stroke-width=".19925" stroke-linecap="butt" stroke-miterlimit="10" stroke-linejoin="miter" fill="none" stroke="#7f807f" d="M-2.12607 20.17455H2.12607M-2.12607 40.34909H2.12607M-2.12607 60.52364H2.12607M-2.12607 100.87273H2.12607M-2.12607 121.04727H2.12607M-2.12607 141.22182H2.12607"/>
<path transform="matrix(.800048,0,0,-.800072,16.399285,130.28742)" stroke-width=".3985" stroke-linecap="butt" stroke-miterlimit="10" stroke-linejoin="miter" fill="none" stroke="#000000" d="M0 80.69818H231.1347"/>
<path transform="matrix(.800048,0,0,-.800072,201.31812,65.72306)" d="M1.99252 0-1.19551 1.59401 0 0-1.19551-1.59401"/>
<path transform="matrix(.800048,0,0,-.800072,16.399285,130.28742)" stroke-width=".3985" stroke-linecap="butt" stroke-miterlimit="10" stroke-linejoin="miter" fill="none" stroke="#000000" d="M0 0V159.40387"/>
<path transform="matrix(0,-.800056,-.80003198,-0,16.399285,2.7528382)" d="M1.99252 0-1.19551 1.59401 0 0-1.19551-1.59401"/>
<use data-text="&#x03c0;" xlink:href="#font_1_1" transform="matrix(6.3764626,0,0,-6.3766539,35.266016,73.23828)"/>
<path transform="matrix(.800048,0,0,-.800072,-1.6401997,-12.203808)" stroke-width=".4364" stroke-linecap="butt" stroke-miterlimit="10" stroke-linejoin="miter" fill="none" stroke="#000000" d="M46.13-108.361H51.279"/>
<use data-text="2" xlink:href="#font_2_1" transform="matrix(6.3764626,0,0,-6.3766539,35.63244,79.68446)"/>
<use data-text="&#x03c0;" xlink:href="#font_3_1" transform="matrix(8.727803,0,0,-8.7280659,55.608839,74.25037)"/>
<use data-text="3" xlink:href="#font_2_2" transform="matrix(6.3764626,0,0,-6.3766539,75.42523,74.60241)"/>
<use data-text="&#x03c0;" xlink:href="#font_1_1" transform="matrix(6.3764626,0,0,-6.3766539,78.81343,74.60241)"/>
<path transform="matrix(.800048,0,0,-.800072,38.519014,-10.839684)" stroke-width=".4364" stroke-linecap="butt" stroke-miterlimit="10" stroke-linejoin="miter" fill="none" stroke="#000000" d="M46.13-108.361H55.513"/>
<use data-text="2" xlink:href="#font_2_1" transform="matrix(6.3764626,0,0,-6.3766539,77.48535,81.048587)"/>
<use data-text="2" xlink:href="#font_4_2" transform="matrix(8.727803,0,0,-8.7280659,95.280017,76.11694)"/>
<use data-text="&#x03c0;" xlink:href="#font_3_1" transform="matrix(8.727803,0,0,-8.7280659,99.64427,76.11694)"/>
<use data-text="5" xlink:href="#font_2_3" transform="matrix(6.3764626,0,0,-6.3766539,117.27814,74.60241)"/>
<use data-text="&#x03c0;" xlink:href="#font_1_1" transform="matrix(6.3764626,0,0,-6.3766539,120.66634,74.60241)"/>
<path transform="matrix(.800048,0,0,-.800072,80.371929,-10.839684)" stroke-width=".4364" stroke-linecap="butt" stroke-miterlimit="10" stroke-linejoin="miter" fill="none" stroke="#000000" d="M46.13-108.361H55.513"/>
<use data-text="2" xlink:href="#font_2_1" transform="matrix(6.3764626,0,0,-6.3766539,119.338268,81.048587)"/>
<use data-text="3" xlink:href="#font_4_3" transform="matrix(8.727803,0,0,-8.7280659,137.13373,76.11694)"/>
<use data-text="&#x03c0;" xlink:href="#font_3_1" transform="matrix(8.727803,0,0,-8.7280659,141.49799,76.11694)"/>
<use data-text="7" xlink:href="#font_2_4" transform="matrix(6.3764626,0,0,-6.3766539,159.13106,74.60241)"/>
<use data-text="&#x03c0;" xlink:href="#font_1_1" transform="matrix(6.3764626,0,0,-6.3766539,162.51926,74.60241)"/>
<path transform="matrix(.800048,0,0,-.800072,122.22484,-10.839684)" stroke-width=".4364" stroke-linecap="butt" stroke-miterlimit="10" stroke-linejoin="miter" fill="none" stroke="#000000" d="M46.13-108.361H55.513"/>
<use data-text="2" xlink:href="#font_2_1" transform="matrix(6.3764626,0,0,-6.3766539,161.19118,81.048587)"/>
<use data-text="4" xlink:href="#font_4_4" transform="matrix(8.727803,0,0,-8.7280659,178.98664,76.11694)"/>
<use data-text="&#x03c0;" xlink:href="#font_3_1" transform="matrix(8.727803,0,0,-8.7280659,183.3509,76.11694)"/>
<use data-text="&#x2212;" xlink:href="#font_5_1" transform="matrix(8.727803,0,0,-8.7280659,.47753144,116.594989)"/>
<use data-text="3" xlink:href="#font_4_3" transform="matrix(8.727803,0,0,-8.7280659,7.265938,116.594989)"/>
<use data-text="&#x2212;" xlink:href="#font_5_1" transform="matrix(8.727803,0,0,-8.7280659,.47753144,100.45433)"/>
<use data-text="2" xlink:href="#font_4_2" transform="matrix(8.727803,0,0,-8.7280659,7.265938,100.45433)"/>
<use data-text="&#x2212;" xlink:href="#font_5_1" transform="matrix(8.727803,0,0,-8.7280659,.47753144,84.312877)"/>
<use data-text="1" xlink:href="#font_4_1" transform="matrix(8.727803,0,0,-8.7280659,7.265938,84.312877)"/>
<use data-text="1" xlink:href="#font_4_1" transform="matrix(8.727803,0,0,-8.7280659,7.265936,52.394006)"/>
<use data-text="2" xlink:href="#font_4_2" transform="matrix(8.727803,0,0,-8.7280659,7.265936,36.25335)"/>
<use data-text="3" xlink:href="#font_4_3" transform="matrix(8.727803,0,0,-8.7280659,7.265936,20.1119)"/>
<g clip-path="url(#clip_6)">
<path transform="matrix(.800048,0,0,-.800072,16.399285,130.28742)" stroke-width=".79701" stroke-linecap="butt" stroke-miterlimit="10" stroke-linejoin="miter" fill="none" stroke="#0000ff" d="M0 80.69818 .84036 77.64656 1.68073 74.60042 2.5211 71.5712 3.36147 68.56378 4.20184 65.58966 5.04222 62.65244 5.8826 59.76003 6.72296 56.92207 7.56334 54.14403 8.4037 51.43498 9.24411 48.79979 10.08449 46.24751 10.92485 43.78056 11.76523 41.40804 12.60559 39.13658 13.44595 36.96983 14.28635 34.91385 15.12671 32.97527 15.96709 31.15776 16.80745 29.46793 17.64783 27.90823 18.4882 26.48293 19.32858 25.19557 20.16895 24.04866 21.00932 23.04578 21.84969 22.18997 22.69005 21.48305 23.53044 20.92744 24.3708 20.52374 25.2112 20.275 26.05157 20.17816 26.89194 20.23627 27.73233 20.4487 28.5727 20.81366 29.41307 21.33052 30.25343 21.99872 31.09381 22.81699 31.93417 23.78296 32.77457 24.89476 33.61493 26.147 34.45529 27.53845 35.29567 29.06606 36.13603 30.7238 36.97643 32.50926 37.81679 34.41695 38.65717 36.44328 39.49753 38.58218 40.3379 40.82883 41.17827 43.17775 42.01866 45.62048 42.85905 48.1534 43.69942 50.76802 44.5398 53.4601 45.38016 56.22119 46.22054 59.04341 47.06091 61.92192 47.90128 64.84885 48.74165 67.81631 49.58202 70.81587 50.4224 73.84024 51.26277 76.88336 52.10315 79.93376 52.94351 82.98656 53.78389 86.03513 54.62425 89.06798 55.46463 92.08266 56.30501 95.06467 57.14537 98.01337 57.98575 100.9167 58.82614 103.76736 59.6665 106.56233 60.5069 109.28831 61.34726 111.9447 62.18764 114.51817 63.028 117.0069 63.86838 119.40364 64.70876 121.70052 65.54913 123.89449 66.3895 125.97711 67.22986 127.94533 68.07024 129.79433 68.9106 131.51683 69.75099 133.11225 70.59135 134.57025 71.43173 135.89209 72.2721 137.07411 73.11247 138.11331 73.95285 139.00542 74.79323 139.74864 75.63359 140.34362 76.47398 140.78603 77.31436 141.07474 78.15472 141.2091 78.99512 141.18973 79.83548 141.01482 80.67584 140.6892 81.51622 140.20984 82.35658 139.57798 83.19698 138.79663 84.03734 137.8694 84.87776 136.7951 85.71805 135.57798 86.55847 134.21982 87.39879 132.72609 88.2392 131.09984 89.07962 129.34525 89.91992 127.4678 90.76035 125.46933 91.60063 123.36008 92.44109 121.14006 93.2815 118.81717 94.12181 116.39684 94.96222 113.88571 95.80252 111.29045 96.64294 108.61711 97.48337 105.87297 98.32367 103.06468 99.1641 100.19888 100.00438 97.28467 100.8448 94.32628 101.68524 91.33519 102.52553 88.31506 103.36595 85.278 104.20624 82.2276 105.04666 79.17418 105.88708 76.1238 106.72739 73.0855 107.56781 70.0678 108.40811 67.07552 109.24855 64.11711 110.08897 61.20168 110.92928 58.3371 111.7697 55.52881 112.61 52.78467 113.45041 50.11012 114.29083 47.51547 115.13115 45.00314 115.97156 42.5828 116.81186 40.2599 117.65228 38.0411 118.4927 35.92944 119.333 33.93216 120.17343 32.0535 121.01372 30.30014 121.85414 28.67265 122.69456 27.17833 123.53485 25.82079 124.37529 24.60365 125.21558 23.52875 126.05603 22.60031 126.89645 21.81956 127.73674 21.18768 128.57717 20.70836 129.41747 20.38152 130.25789 20.2066 131.09832 20.18723 131.9386 20.3216 132.77902 20.6097 133.61934 21.05212 134.45975 21.64525 135.30017 22.3897 136.14048 23.28241 136.98088 24.3204 137.82118 25.50122 138.66162 26.82304 139.50205 28.28227 140.34233 29.87708 141.18276 31.59956 142.02304 33.44615 142.86351 35.4156 143.70392 37.49883 144.54419 39.691 145.38465 41.98785 146.22493 44.38399 147.06536 46.87273 147.90579 49.448 148.74608 52.10257 149.5865 54.82976 150.42679 57.62292 151.26721 60.47481 152.10765 63.37872 152.94794 66.32622 153.78836 69.30943 154.62866 72.3229 155.46907 75.35635 156.3095 78.40492 157.14981 81.45714 157.99024 84.50873 158.83052 87.55066 159.67096 90.57442 160.51137 93.57578 161.35167 96.54204 162.19211 99.46837 163.03241 102.34747 163.87284 105.1703 164.71324 107.93199 165.55355 110.62408 166.39398 113.2381 167.23427 115.77162 168.07469 118.21495 168.91512 120.56448 169.7554 122.81052 170.59584 124.94942 171.43613 126.97455 172.27655 128.88346 173.11698 130.66951 173.95726 132.32726 174.79769 133.85488 175.638 135.24752 176.47841 136.50096 177.31887 137.61278 178.15914 138.57752 178.99958 139.39762 179.83989 140.06459 180.6803 140.58206 181.52072 140.94763 182.36103 141.15886 183.20143 141.21817 184.04174 141.12195 184.88217 140.87259 185.72258 140.47011 186.56288 139.9151 187.4033 139.20758 188.24359 138.35178 189.08403 137.3495 189.92446 136.20258 190.76474 134.91585 191.60517 133.49112 192.44545 131.93143 193.28588 130.241 194.12635 128.4247 194.9666 126.48611 195.80706 124.43011 196.64734 122.26399 197.48777 119.99315 198.3282 117.62062 199.16849 115.15367 200.00891 112.60077 200.84922 109.96619 201.68962 107.25594 202.53005 104.4785 203.37036 101.64177 204.21077 98.74994 205.05107 95.81274 205.8915 92.83679 206.73192 89.83119 207.57222 86.80199 208.41265 83.75461 209.25293 80.703"/>
</g>
<use data-text="t" xlink:href="#font_3_2" transform="matrix(8.727803,0,0,-8.7280659,196.69171,62.65493)"/>
<use data-text="y" xlink:href="#font_3_3" transform="matrix(8.727803,0,0,-8.7280659,19.467469,7.9852068)"/>
</svg>
