<svg xmlns="http://www.w3.org/2000/svg" xmlns:xlink="http://www.w3.org/1999/xlink" xmlns:inkscape="http://www.inkscape.org/namespaces/inkscape" version="1.1" width="159" height="137" viewBox="0 0 159 137">
<defs>
<path id="font_1_1" d="M.6589966 .23046875C.6759949 .23046875 .69400027 .23046875 .69400027 .25045777 .69400027 .27046205 .6759949 .27046205 .6589966 .27046205H.117996219C.100997928 .27046205 .08299255 .27046205 .08299255 .25045777 .08299255 .23046875 .100997928 .23046875 .117996219 .23046875H.6589966Z"/>
<path id="font_2_6" d="M.2939911 .16503906V.07800293C.2939911 .041992189 .2919922 .0309906 .21798706 .0309906H.19699097V0C.23799134 .0029907227 .2899933 .0029907227 .33198548 .0029907227 .37399293 .0029907227 .4269867 .0029907227 .46798707 0V.0309906H.44699098C.37298585 .0309906 .37098695 .041992189 .37098695 .07800293V.16503906H.47099305V.19602967H.37098695V.65075686C.37098695 .67074587 .37098695 .6767578 .35499574 .6767578 .34599305 .6767578 .34298707 .6767578 .33499146 .66474917L.027999878 .19602967V.16503906H.2939911M.2999878 .19602967H.055999757L.2999878 .5688019V.19602967Z"/>
<path id="font_2_5" d="M.2899933 .35191346C.37199403 .37893678 .42999269 .4490509 .42999269 .52809146 .42999269 .6100464 .34199525 .6660156 .24598694 .6660156 .14498902 .6660156 .068984989 .60606387 .068984989 .53009036 .068984989 .49710084 .09098816 .47808839 .11999512 .47808839 .15098572 .47808839 .17098999 .50009158 .17098999 .5290985 .17098999 .57910159 .12399292 .57910159 .10899353 .57910159 .13999939 .62802127 .20599365 .64100649 .24198914 .64100649 .2829895 .64100649 .33799745 .6190338 .33799745 .5290985 .33799745 .51708987 .33599855 .45906068 .30999757 .4149933 .27999879 .36691285 .24598694 .36390687 .22099304 .36291505 .21299744 .36190797 .18899536 .35990907 .18199158 .35990907 .17399597 .35890199 .16699219 .35791017 .16699219 .3479004 .16699219 .33691407 .17399597 .33691407 .19099427 .33691407H.23498535C.31698609 .33691407 .35398866 .2686615 .35398866 .17037964 .35398866 .034469606 .2849884 .0055389406 .24099732 .0055389406 .19799805 .0055389406 .12298584 .022491456 .08799744 .08137512 .12298584 .07637024 .1539917 .09837341 .1539917 .1363678 .1539917 .17237854 .1269989 .19238281 .09799194 .19238281 .07398987 .19238281 .041992189 .17837525 .041992189 .1343689 .041992189 .043441774 .1349945-.022460938 .24398804-.022460938 .3659973-.022460938 .45700074 .06838989 .45700074 .17037964 .45700074 .252594 .3939972 .33088685 .2899933 .35191346Z"/>
<path id="font_2_4" d="M.1269989 .07699585 .23298645 .18003845C.3889923 .31811524 .44898988 .3721466 .44898988 .47216798 .44898988 .5860901 .35899354 .6660156 .23699951 .6660156 .12399292 .6660156 .049987794 .57411196 .049987794 .48516847 .049987794 .4291687 .099990848 .4291687 .102996829 .4291687 .11999512 .4291687 .15499878 .44117738 .15499878 .48217774 .15499878 .5081787 .13699341 .5341797 .101989749 .5341797 .09399414 .5341797 .09199524 .5341797 .08898926 .5331726 .11199951 .59806826 .1659851 .63500979 .22399903 .63500979 .31498719 .63500979 .35798646 .5541382 .35798646 .47216798 .35798646 .39215089 .30799867 .31311036 .25299073 .25108338L.06098938 .036987306C.049987794 .025985718 .049987794 .023986817 .049987794 0H.42099L.44898988 .17404175H.42399598C.4189911 .14402771 .4119873 .1000061 .4019928 .084991458 .394989 .07699585 .32899476 .07699585 .30699159 .07699585H.1269989Z"/>
<path id="font_2_3" d="M.2939911 .64004519C.2939911 .66400149 .2939911 .6660156 .2709961 .6660156 .20899964 .60227969 .12098694 .60227969 .08898926 .60227969V.57128909C.10899353 .57128909 .16799927 .57128909 .21998596 .5972748V.07902527C.21998596 .042999269 .21699524 .0309906 .1269989 .0309906H.09498596V0C.12998963 .0029907227 .21699524 .0029907227 .25698854 .0029907227 .29699708 .0029907227 .38398744 .0029907227 .4189911 0V.0309906H.3869934C.29699708 .0309906 .2939911 .041992189 .2939911 .07902527V.64004519Z"/>
<path id="font_2_8" d="M.16299439 .4569702C.116989139 .486969 .11299133 .52098086 .11299133 .5379791 .11299133 .598999 .17799378 .64100649 .24899292 .64100649 .32199098 .64100649 .38598634 .58898928 .38598634 .51698306 .38598634 .45996095 .34700013 .4119568 .2869873 .37695313L.16299439 .4569702M.30899049 .36193849C.3809967 .3989563 .42999269 .45095826 .42999269 .51698306 .42999269 .6090088 .34098817 .6660156 .25 .6660156 .1499939 .6660156 .068984989 .59199526 .068984989 .49897767 .068984989 .4809723 .070999149 .43595887 .11299133 .38894654 .12399292 .37695313 .16099549 .35194398 .18598938 .33494569 .12799073 .30592347 .041992189 .24984741 .041992189 .15072632 .041992189 .04458618 .14399719-.022460938 .24899292-.022460938 .3619995-.022460938 .45700074 .06060791 .45700074 .16773987 .45700074 .20379639 .44599916 .24885559 .4079895 .2909088 .3889923 .31193543 .37298585 .3219452 .30899049 .36193849M.20899964 .3199463 .33198548 .24183655C.3600006 .2228241 .40699769 .19277954 .40699769 .13169861 .40699769 .05760193 .33198548 .0055389406 .25 .0055389406 .1639862 .0055389406 .09199524 .067611698 .09199524 .15072632 .09199524 .20880127 .12399292 .27288819 .20899964 .3199463Z"/>
<path id="font_2_7" d="M.13198853 .327713V.35173036C.13198853 .6047821 .2559967 .64100649 .30699159 .64100649 .33099366 .64100649 .37298585 .634964 .394989 .6007538 .37998963 .6007538 .33999635 .6007538 .33999635 .5557556 .33999635 .524765 .3639984 .5097656 .38598634 .5097656 .4019928 .5097656 .43199159 .51875308 .43199159 .5577545 .43199159 .6178589 .3880005 .6660156 .30499269 .6660156 .1769867 .6660156 .041992189 .5367584 .041992189 .31570436 .041992189 .048553468 .1579895-.022460938 .25099183-.022460938 .3619995-.022460938 .45700074 .07156372 .45700074 .2036438 .45700074 .33070375 .36799623 .4267578 .25698854 .4267578 .18899536 .4267578 .1519928 .37573243 .13198853 .327713M.25099183 .0055389406C.18798828 .0055389406 .1579895 .06556702 .1519928 .080566409 .13398743 .127594 .13398743 .2076416 .13398743 .22564698 .13398743 .30369569 .1659851 .40374757 .2559967 .40374757 .27198792 .40374757 .31799317 .40374757 .34899903 .34172059 .36698915 .30470277 .36698915 .2536621 .36698915 .20463562 .36698915 .15661621 .36698915 .10658264 .34999085 .0705719 .31999208 .010528564 .27398683 .0055389406 .25099183 .0055389406Z"/>
<clipPath id="clip_3">
<path transform="matrix(.80003997,0,0,-.800064,1.7285361,178.96263)" d="M0 57.64174H194.26607V219.0375H0Z"/>
</clipPath>
<path id="font_4_2" d="M.33399964 .30233766C.33999635 .32835389 .36299134 .42037965 .43299867 .42037965 .43798829 .42037965 .46199037 .42037965 .48298646 .40734864 .45498658 .402359 .43499757 .37734986 .43499757 .35334779 .43499757 .33735658 .44599916 .31835938 .47299195 .31835938 .49499513 .31835938 .5269928 .3363495 .5269928 .37635804 .5269928 .42837525 .46798707 .4423828 .43399049 .4423828 .37599183 .4423828 .34098817 .38935853 .32899476 .36634828 .3039856 .43237306 .25 .4423828 .22099304 .4423828 .116989139 .4423828 .05999756 .3133545 .05999756 .28834535 .05999756 .27833558 .069992069 .27833558 .07199097 .27833558 .07998657 .27833558 .08299255 .28033448 .084991458 .28933717 .11898804 .39535523 .18499756 .42037965 .21899414 .42037965 .23799134 .42037965 .272995 .4113617 .272995 .35334779 .272995 .32235719 .2559967 .25532533 .21899414 .11528015 .20298767 .053268434 .16799927 .011245728 .12399292 .011245728 .117996219 .011245728 .09498596 .011245728 .07398987 .024276734 .09899902 .029266358 .12098694 .05027771 .12098694 .07827759 .12098694 .105270389 .09899902 .11328125 .083999637 .11328125 .053985597 .11328125 .0289917 .08728027 .0289917 .055267335 .0289917 .009246826 .07899475-.0107421879 .12298584-.0107421879 .18899536-.0107421879 .22499085 .059280397 .22799683 .0652771 .23999024 .028274537 .27598573-.0107421879 .33599855-.0107421879 .43899537-.0107421879 .49598695 .118270877 .49598695 .14328003 .49598695 .1532898 .4869995 .1532898 .48399354 .1532898 .47499085 .1532898 .47299195 .14929199 .47099305 .14228821 .43798829 .03527832 .36999513 .011245728 .33799745 .011245728 .29899598 .011245728 .2829895 .043273927 .2829895 .07727051 .2829895 .09927368 .2889862 .121276859 .2999878 .16529846L.33399964 .30233766Z"/>
<path id="font_4_1" d="M.47099305 .3773346C.47200013 .3833313 .47399903 .38833619 .47399903 .39535523 .47399903 .41236878 .46199037 .42237855 .44499208 .42237855 .43499757 .42237855 .4079895 .41537477 .4039917 .3793335 .38598634 .41636659 .35099793 .4423828 .31098939 .4423828 .19699097 .4423828 .07299805 .30226136 .07299805 .15812683 .07299805 .059020997 .13398743 0 .20599365 0 .2649994 0 .31199647 .04701233 .32199098 .058029176L.32299806 .057022096C.3019867-.031982423 .2899933-.07295227 .2899933-.07495117 .28599549-.08395386 .2519989-.18309021 .1459961-.18309021 .1269989-.18309021 .09399414-.18206787 .06599426-.17297364 .09599304-.16394043 .10699463-.13793946 .10699463-.12094116 .10699463-.10494995 .09599304-.0859375 .068984989-.0859375 .04699707-.0859375 .01499939-.10394287 .01499939-.14395142 .01499939-.18508911 .051986696-.20507813 .147995-.20507813 .272995-.20507813 .34498597-.12693787 .3600006-.06695557L.47099305 .3773346M.34098817 .12809754C.33499146 .10206604 .31199647 .077041629 .2899933 .058029176 .2689972 .040008546 .23799134 .021987915 .20899964 .021987915 .15899658 .021987915 .14399719 .074035648 .14399719 .11407471 .14399719 .16212464 .17298889 .28024293 .19999695 .33128358 .22698975 .38034059 .269989 .42037965 .31199647 .42037965 .37799073 .42037965 .3919983 .33929444 .3919983 .33428956 .3919983 .32928468 .3899994 .3232727 .3889923 .3192749L.34098817 .12809754Z"/>
<path id="font_2_1" d="M.33099366-.2400055C.33099366-.23701477 .33099366-.23500061 .31399537-.21800232 .18899536-.0920105 .15699768 .09700012 .15699768 .25 .15699768 .42399598 .19499207 .59799197 .31799317 .72299197 .33099366 .73498538 .33099366 .7369995 .33099366 .73999026 .33099366 .746994 .32699586 .75 .32099916 .75 .31098939 .75 .22099304 .6819916 .1619873 .5549927 .11099243 .44499208 .09899902 .33399964 .09899902 .25 .09899902 .17199707 .10998535 .050994874 .16499329-.06201172 .22499085-.18501282 .31098939-.25 .32099916-.25 .32699586-.25 .33099366-.24700928 .33099366-.2400055Z"/>
<path id="font_2_2" d="M.2889862 .25C.2889862 .32798768 .27799989 .44898988 .22299195 .56199648 .16299439 .68499758 .07699585 .75 .066986087 .75 .06098938 .75 .056991579 .74598696 .056991579 .73999026 .056991579 .7369995 .056991579 .73498538 .07598877 .71699526 .17399597 .6179962 .23098755 .45899964 .23098755 .25 .23098755 .07899475 .19400025-.09700012 .069992069-.2230072 .056991579-.23500061 .056991579-.23701477 .056991579-.2400055 .056991579-.2460022 .06098938-.25 .066986087-.25 .07699585-.25 .16699219-.18200684 .22599793-.055007936 .2769928 .054992677 .2889862 .16600037 .2889862 .25Z"/>
</defs>
<path transform="matrix(.80003997,0,0,-.800064,1.7285361,178.96263)" stroke-width=".3985" stroke-linecap="butt" stroke-miterlimit="10" stroke-linejoin="miter" fill="none" stroke="#bfbfbf" d="M29.88708 57.64174V219.0375M59.77417 57.64174V219.0375M89.66125 57.64174V219.0375M119.54836 57.64174V219.0375M179.32253 57.64174V219.0375"/>
<path transform="matrix(.80003997,0,0,-.800064,1.7285361,178.96263)" stroke-width=".3985" stroke-linecap="butt" stroke-miterlimit="10" stroke-linejoin="miter" fill="none" stroke="#bfbfbf" d="M0 57.64174H194.26607M0 80.69829H194.26607M0 103.75482H194.26607M0 126.81136H194.26607M0 172.92443H194.26607M0 195.98096H194.26607M0 219.0375H194.26607"/>
<path transform="matrix(.80003997,0,0,-.800064,1.7285361,178.96263)" stroke-width=".19925" stroke-linecap="butt" stroke-miterlimit="10" stroke-linejoin="miter" fill="none" stroke="#7f807f" d="M29.88708 147.74175V151.99405M59.77417 147.74175V151.99405M89.66125 147.74175V151.99405M119.54836 147.74175V151.99405M179.32253 147.74175V151.99405"/>
<path transform="matrix(.80003997,0,0,-.800064,1.7285361,178.96263)" stroke-width=".19925" stroke-linecap="butt" stroke-miterlimit="10" stroke-linejoin="miter" fill="none" stroke="#7f807f" d="M147.30953 57.64174H151.56134M147.30953 80.69829H151.56134M147.30953 103.75482H151.56134M147.30953 126.81136H151.56134M147.30953 172.92443H151.56134M147.30953 195.98096H151.56134M147.30953 219.0375H151.56134"/>
<path transform="matrix(.80003997,0,0,-.800064,1.7285361,178.96263)" stroke-width=".3985" stroke-linecap="butt" stroke-miterlimit="10" stroke-linejoin="miter" fill="none" stroke="#000000" d="M0 149.86789H192.27355"/>
<path transform="matrix(.80003997,0,0,-.800064,155.55506,59.058725)" d="M1.99252 0-1.19551 1.59401 0 0-1.19551-1.59401"/>
<path transform="matrix(.80003997,0,0,-.800064,1.7285361,178.96263)" stroke-width=".3985" stroke-linecap="butt" stroke-miterlimit="10" stroke-linejoin="miter" fill="none" stroke="#000000" d="M149.43544 57.64174V217.04499"/>
<path transform="matrix(0,-.800064,-.80003997,-0,121.28286,5.312744)" d="M1.99252 0-1.19551 1.59401 0 0-1.19551-1.59401"/>
<use data-text="&#x2212;" xlink:href="#font_1_1" transform="matrix(8.7277159,0,0,-8.727978,20.06305,69.453067)"/>
<use data-text="4" xlink:href="#font_2_6" transform="matrix(8.7277159,0,0,-8.727978,26.851389,69.453067)"/>
<use data-text="&#x2212;" xlink:href="#font_1_1" transform="matrix(8.7277159,0,0,-8.727978,43.97385,69.453067)"/>
<use data-text="3" xlink:href="#font_2_5" transform="matrix(8.7277159,0,0,-8.727978,50.762189,69.453067)"/>
<use data-text="&#x2212;" xlink:href="#font_1_1" transform="matrix(8.7277159,0,0,-8.727978,67.884639,69.453067)"/>
<use data-text="2" xlink:href="#font_2_4" transform="matrix(8.7277159,0,0,-8.727978,74.67297,69.453067)"/>
<use data-text="&#x2212;" xlink:href="#font_1_1" transform="matrix(8.7277159,0,0,-8.727978,91.79623,69.453067)"/>
<use data-text="1" xlink:href="#font_2_3" transform="matrix(8.7277159,0,0,-8.727978,98.584568,69.453067)"/>
<use data-text="1" xlink:href="#font_2_3" transform="matrix(8.7277159,0,0,-8.727978,143.01158,69.453067)"/>
<use data-text="&#x2212;" xlink:href="#font_1_1" transform="matrix(8.7277159,0,0,-8.727978,105.36171,135.29434)"/>
<use data-text="8" xlink:href="#font_2_8" transform="matrix(8.7277159,0,0,-8.727978,112.150058,135.29434)"/>
<use data-text="&#x2212;" xlink:href="#font_1_1" transform="matrix(8.7277159,0,0,-8.727978,105.36171,116.84726)"/>
<use data-text="6" xlink:href="#font_2_7" transform="matrix(8.7277159,0,0,-8.727978,112.150058,116.84726)"/>
<use data-text="&#x2212;" xlink:href="#font_1_1" transform="matrix(8.7277159,0,0,-8.727978,105.36171,98.400989)"/>
<use data-text="4" xlink:href="#font_2_6" transform="matrix(8.7277159,0,0,-8.727978,112.150058,98.400989)"/>
<use data-text="&#x2212;" xlink:href="#font_1_1" transform="matrix(8.7277159,0,0,-8.727978,105.36171,79.95391)"/>
<use data-text="2" xlink:href="#font_2_4" transform="matrix(8.7277159,0,0,-8.727978,112.150058,79.95391)"/>
<use data-text="2" xlink:href="#font_2_4" transform="matrix(8.7277159,0,0,-8.727978,112.15005,43.42459)"/>
<use data-text="4" xlink:href="#font_2_6" transform="matrix(8.7277159,0,0,-8.727978,112.15005,24.977509)"/>
<use data-text="6" xlink:href="#font_2_7" transform="matrix(8.7277159,0,0,-8.727978,112.15005,6.5312349)"/>
<g clip-path="url(#clip_3)">
<path transform="matrix(.80003997,0,0,-.800064,1.7285361,178.96263)" stroke-width=".79701" stroke-linecap="butt" stroke-miterlimit="10" stroke-linejoin="miter" fill="none" stroke="#0000ff" d="M0 .0004 .72015 3.32056 1.44032 6.61397 2.16049 9.88043 2.88066 13.12 3.60085 16.33319 4.32101 19.5193 5.04118 22.67867 5.76135 25.81145 6.48152 28.91733 7.2017 31.99649 7.92186 35.0489 8.64204 38.07423 9.36221 41.07317 10.08238 44.04515 10.80255 46.99028 11.52272 49.909 12.24289 52.80063 12.96307 55.66553 13.68323 58.5037 14.40341 61.31491 15.1236 64.0996 15.84375 66.85753 16.56393 69.5884 17.28409 72.29286 18.00427 74.97003 18.72444 77.62068 19.44461 80.24495 20.16478 82.8421 20.88496 85.41254 21.60512 87.95622 22.3253 90.47298 23.04546 92.96283 23.76564 95.4263 24.48581 97.8627 25.20598 100.2727 25.92616 102.65561 26.64632 105.01158 27.3665 107.341 28.08667 109.6437 28.80684 111.91966 29.52701 114.16853 30.2472 116.39081 30.96736 118.58656 31.68753 120.75522 32.40768 122.89714 33.12787 125.01266 33.84804 127.10112 34.5682 129.16262 35.28839 131.19759 36.00856 133.20546 36.72873 135.18695 37.4489 137.1417 38.16907 139.06916 38.88924 140.97043 39.60942 142.84462 40.32957 144.69207 41.04976 146.51279 41.76993 148.30675 42.4901 150.07378 43.21027 151.81427 43.93044 153.5277 44.6506 155.2147 45.37079 156.87464 46.09096 158.50783 46.81113 160.11444 47.53131 161.69416 48.25146 163.24713 48.97165 164.77338 49.6918 166.27252 50.41199 167.74509 51.13216 169.19112 51.85233 170.61005 52.5725 172.00261 53.29266 173.36808 54.01283 174.7068 54.73302 176.01857 55.45317 177.30387 56.17336 178.56229 56.89354 179.79398 57.6137 180.99883 58.33388 182.17688 59.05403 183.32823 59.77422 184.45278 60.49438 185.55054 61.21455 186.62157 61.93472 187.66573 62.6549 188.68321 63.37506 189.67388 64.09525 190.63779 64.8154 191.57492 65.53558 192.48528 66.25575 193.36878 66.97592 194.22559 67.6961 195.05562 68.41628 195.85889 69.13644 196.63535 69.85661 197.38503 70.57678 198.10794 71.29695 198.80411 72.01714 199.47347 72.73734 200.11614 73.45744 200.73188 74.17767 201.32096 74.89777 201.88315 75.61798 202.41869 76.3382 202.92745 77.0583 203.40937 77.77852 203.86455 78.49863 204.29291 79.21884 204.69454 79.93904 205.06945 80.65915 205.41745 81.37938 205.7388 82.09947 206.03331 82.8197 206.30104 83.53992 206.54203 84.26001 206.75621 84.98024 206.94364 85.70033 207.10427 86.42055 207.23816 87.14078 207.34525 87.86087 207.42559 88.58109 207.47911 89.30121 207.50589H90.02141L90.74162 207.47911 91.46172 207.42559 92.18195 207.34522 92.90205 207.23813 93.62227 207.10427 94.34248 206.94359 95.06259 206.75617 95.7828 206.54196 96.50291 206.301 97.22311 206.03324 97.94334 205.7387 98.66345 205.4174 99.38365 205.06934 100.10378 204.6945 100.82399 204.29285 101.54419 203.86441 102.2643 203.40929 102.98451 202.9273 103.70462 202.41866 104.42485 201.88309 105.14505 201.32079 105.86516 200.73181 106.58537 200.11592 107.30548 199.4734 108.0257 198.80397 108.74591 198.10778 109.46602 197.38494 110.18623 196.63516 110.90634 195.85878 111.62656 195.05548 112.34676 194.22537 113.06686 193.36867 113.7871 192.48503 114.50719 191.57477 115.22742 190.6376 115.94763 189.67363 116.66772 188.68306 117.38795 187.66555 118.10805 186.62137 118.82826 185.55036 119.54848 184.45249 120.26859 183.32804 120.9888 182.17664 121.70892 180.99866 122.42912 179.7937 123.14934 178.562 123.86943 177.30367 124.58966 176.0184 125.30977 174.70653 126.02998 173.3677 126.7502 172.00209 127.4703 170.60993 128.19052 169.19077 128.91063 167.74506 129.63083 166.27233 130.35105 164.77286 131.07117 163.2468 131.79137 161.69377 132.51149 160.1142 133.23169 158.50757 133.9519 156.87422 134.67201 155.21433 135.39223 153.52739 136.11234 151.81394 136.83257 150.07347 137.55277 148.30622 138.27288 146.51245 138.99309 144.69164 139.7132 142.84433 140.43341 140.96997 141.15361 139.06884 141.87374 137.1412 142.59395 135.18653 143.31404 133.20536 144.03427 131.1971 144.75447 129.16208 145.47458 127.1006 146.19481 125.01202 146.9149 122.89699 147.63513 120.75485 148.35535 118.58595 149.07544 116.3906 149.79567 114.16815 150.51576 111.91925 151.23598 109.64326 151.95619 107.34047 152.6763 105.01125 153.39652 102.6549 154.11663 100.27216 154.83684 97.86226 155.55706 95.4256 156.27715 92.96251 156.99738 90.47229 157.71749 87.95566 158.4377 85.41188 159.15792 82.84135 159.878 80.24442 160.59824 77.62029 161.31835 74.96982 162.03855 72.29214 162.75876 69.58774 163.47888 66.85692 164.19908 64.09894 164.91919 61.31459 165.6394 58.50304 166.35962 55.66475 167.07973 52.80006 167.79994 49.90819 168.52005 46.98999 169.24028 44.04456 169.96048 41.07236 170.68059 38.07385 171.4008 35.04808 172.12091 31.996 172.84113 28.91669 173.56133 25.81062 174.28145 22.67822 175.00167 19.5186 175.72176 16.33267 176.44199 13.11948 177.16219 9.87953 177.8823 6.61327 178.60253 3.31973 179.32262 0"/>
</g>
<use data-text="x" xlink:href="#font_4_2" transform="matrix(8.7277159,0,0,-8.727978,149.09268,55.990388)"/>
<use data-text="g" xlink:href="#font_4_1" transform="matrix(8.7277159,0,0,-8.727978,124.35145,13.333374)"/>
<use data-text="(" xlink:href="#font_2_1" transform="matrix(8.7277159,0,0,-8.727978,128.82767,13.333374)"/>
<use data-text="x" xlink:href="#font_4_2" transform="matrix(8.7277159,0,0,-8.727978,132.22144,13.333374)"/>
<use data-text=")" xlink:href="#font_2_2" transform="matrix(8.7277159,0,0,-8.727978,137.20969,13.333374)"/>
</svg>
