<svg xmlns="http://www.w3.org/2000/svg" xmlns:xlink="http://www.w3.org/1999/xlink" xmlns:inkscape="http://www.inkscape.org/namespaces/inkscape" version="1.1" width="165" height="137" viewBox="0 0 165 137">
<defs>
<path id="font_1_1" d="M.6589966 .23046875C.6759949 .23046875 .69400027 .23046875 .69400027 .25045777 .69400027 .27046205 .6759949 .27046205 .6589966 .27046205H.117996219C.100997928 .27046205 .08299255 .27046205 .08299255 .25045777 .08299255 .23046875 .100997928 .23046875 .117996219 .23046875H.6589966Z"/>
<path id="font_2_3" d="M.2899933 .35191346C.37199403 .37893678 .42999269 .4490509 .42999269 .52809146 .42999269 .6100464 .34199525 .6660156 .24598694 .6660156 .14498902 .6660156 .068984989 .60606387 .068984989 .53009036 .068984989 .49710084 .09098816 .47808839 .11999512 .47808839 .15098572 .47808839 .17098999 .50009158 .17098999 .5290985 .17098999 .57910159 .12399292 .57910159 .10899353 .57910159 .13999939 .62802127 .20599365 .64100649 .24198914 .64100649 .2829895 .64100649 .33799745 .6190338 .33799745 .5290985 .33799745 .51708987 .33599855 .45906068 .30999757 .4149933 .27999879 .36691285 .24598694 .36390687 .22099304 .36291505 .21299744 .36190797 .18899536 .35990907 .18199158 .35990907 .17399597 .35890199 .16699219 .35791017 .16699219 .3479004 .16699219 .33691407 .17399597 .33691407 .19099427 .33691407H.23498535C.31698609 .33691407 .35398866 .2686615 .35398866 .17037964 .35398866 .034469606 .2849884 .0055389406 .24099732 .0055389406 .19799805 .0055389406 .12298584 .022491456 .08799744 .08137512 .12298584 .07637024 .1539917 .09837341 .1539917 .1363678 .1539917 .17237854 .1269989 .19238281 .09799194 .19238281 .07398987 .19238281 .041992189 .17837525 .041992189 .1343689 .041992189 .043441774 .1349945-.022460938 .24398804-.022460938 .3659973-.022460938 .45700074 .06838989 .45700074 .17037964 .45700074 .252594 .3939972 .33088685 .2899933 .35191346Z"/>
<path id="font_2_2" d="M.1269989 .07699585 .23298645 .18003845C.3889923 .31811524 .44898988 .3721466 .44898988 .47216798 .44898988 .5860901 .35899354 .6660156 .23699951 .6660156 .12399292 .6660156 .049987794 .57411196 .049987794 .48516847 .049987794 .4291687 .099990848 .4291687 .102996829 .4291687 .11999512 .4291687 .15499878 .44117738 .15499878 .48217774 .15499878 .5081787 .13699341 .5341797 .101989749 .5341797 .09399414 .5341797 .09199524 .5341797 .08898926 .5331726 .11199951 .59806826 .1659851 .63500979 .22399903 .63500979 .31498719 .63500979 .35798646 .5541382 .35798646 .47216798 .35798646 .39215089 .30799867 .31311036 .25299073 .25108338L.06098938 .036987306C.049987794 .025985718 .049987794 .023986817 .049987794 0H.42099L.44898988 .17404175H.42399598C.4189911 .14402771 .4119873 .1000061 .4019928 .084991458 .394989 .07699585 .32899476 .07699585 .30699159 .07699585H.1269989Z"/>
<path id="font_2_1" d="M.2939911 .64004519C.2939911 .66400149 .2939911 .6660156 .2709961 .6660156 .20899964 .60227969 .12098694 .60227969 .08898926 .60227969V.57128909C.10899353 .57128909 .16799927 .57128909 .21998596 .5972748V.07902527C.21998596 .042999269 .21699524 .0309906 .1269989 .0309906H.09498596V0C.12998963 .0029907227 .21699524 .0029907227 .25698854 .0029907227 .29699708 .0029907227 .38398744 .0029907227 .4189911 0V.0309906H.3869934C.29699708 .0309906 .2939911 .041992189 .2939911 .07902527V.64004519Z"/>
<path id="font_2_7" d="M.47599793 .609375C.4850006 .6213684 .4850006 .62338259 .4850006 .64437869H.24198914C.11999512 .64437869 .117996219 .65737918 .11399841 .67637637H.08898926L.055999757 .4702301H.08099365C.083999637 .48625184 .09298706 .5493469 .10598755 .56137087 .11299133 .5673828 .19099427 .5673828 .20399475 .5673828H.41099549C.3999939 .5513611 .32099916 .4421997 .29899598 .40914918 .20899964 .27394105 .17599488 .1347351 .17599488 .032577516 .17599488 .022567749 .17599488-.022460938 .22200012-.022460938 .2679901-.022460938 .2679901 .022567749 .2679901 .032577516V.08366394C.2679901 .13873291 .2709961 .19381714 .2789917 .24790955 .2829895 .27093507 .29699708 .35707093 .34098817 .41915895L.47599793 .609375Z"/>
<path id="font_2_6" d="M.13198853 .327713V.35173036C.13198853 .6047821 .2559967 .64100649 .30699159 .64100649 .33099366 .64100649 .37298585 .634964 .394989 .6007538 .37998963 .6007538 .33999635 .6007538 .33999635 .5557556 .33999635 .524765 .3639984 .5097656 .38598634 .5097656 .4019928 .5097656 .43199159 .51875308 .43199159 .5577545 .43199159 .6178589 .3880005 .6660156 .30499269 .6660156 .1769867 .6660156 .041992189 .5367584 .041992189 .31570436 .041992189 .048553468 .1579895-.022460938 .25099183-.022460938 .3619995-.022460938 .45700074 .07156372 .45700074 .2036438 .45700074 .33070375 .36799623 .4267578 .25698854 .4267578 .18899536 .4267578 .1519928 .37573243 .13198853 .327713M.25099183 .0055389406C.18798828 .0055389406 .1579895 .06556702 .1519928 .080566409 .13398743 .127594 .13398743 .2076416 .13398743 .22564698 .13398743 .30369569 .1659851 .40374757 .2559967 .40374757 .27198792 .40374757 .31799317 .40374757 .34899903 .34172059 .36698915 .30470277 .36698915 .2536621 .36698915 .20463562 .36698915 .15661621 .36698915 .10658264 .34999085 .0705719 .31999208 .010528564 .27398683 .0055389406 .25099183 .0055389406Z"/>
<path id="font_2_5" d="M.44898988 .20022583C.44898988 .3193512 .36698915 .41944886 .25898744 .41944886 .21099854 .41944886 .16799927 .40345765 .13198853 .36842347V.5637665C.1519928 .5577698 .18499756 .55078127 .21699524 .55078127 .33999635 .55078127 .4099884 .6417694 .4099884 .6547699 .4099884 .6607666 .40699769 .6657715 .3999939 .6657715 .39898683 .6657715 .39698792 .6657715 .3919983 .66278079 .37199403 .6537781 .32299806 .6337738 .2559967 .6337738 .21598816 .6337738 .16999817 .6407776 .12298584 .6617737 .114990238 .66477969 .11299133 .66477969 .11099243 .66477969 .100997928 .66477969 .100997928 .6567688 .100997928 .6407776V.34439088C.100997928 .32637025 .100997928 .31835938 .114990238 .31835938 .12199402 .31835938 .12399292 .32136537 .12799073 .32736207 .13899231 .3433838 .17599488 .39746095 .25698854 .39746095 .30899049 .39746095 .33399964 .35139466 .34199525 .33337403 .35798646 .29632569 .3600006 .25727845 .3600006 .20722962 .3600006 .17222595 .3600006 .11222839 .33599855 .07035828 .31199647 .031463624 .2749939 .0055389406 .22898865 .0055389406 .1559906 .0055389406 .09899902 .058380128 .08198547 .11723328 .084991458 .1162262 .08799744 .115234378 .09899902 .115234378 .13198853 .115234378 .14898682 .14022827 .14898682 .16423035 .14898682 .18823242 .13198853 .21322632 .09899902 .21322632 .084991458 .21322632 .049987794 .20622254 .049987794 .16023255 .049987794 .07434082 .11898804-.022460938 .23098755-.022460938 .34700013-.022460938 .44898988 .073349 .44898988 .20022583Z"/>
<path id="font_2_4" d="M.2939911 .16503906V.07800293C.2939911 .041992189 .2919922 .0309906 .21798706 .0309906H.19699097V0C.23799134 .0029907227 .2899933 .0029907227 .33198548 .0029907227 .37399293 .0029907227 .4269867 .0029907227 .46798707 0V.0309906H.44699098C.37298585 .0309906 .37098695 .041992189 .37098695 .07800293V.16503906H.47099305V.19602967H.37098695V.65075686C.37098695 .67074587 .37098695 .6767578 .35499574 .6767578 .34599305 .6767578 .34298707 .6767578 .33499146 .66474917L.027999878 .19602967V.16503906H.2939911M.2999878 .19602967H.055999757L.2999878 .5688019V.19602967Z"/>
<clipPath id="clip_3">
<path transform="matrix(.80002406,0,0,-.800064,-71.656009,160.51638)" d="M97.13608 34.5848H291.40824V195.98056H97.13608Z"/>
</clipPath>
<path id="font_4_2" d="M.33399964 .30233766C.33999635 .32835389 .36299134 .42037965 .43299867 .42037965 .43798829 .42037965 .46199037 .42037965 .48298646 .40734864 .45498658 .402359 .43499757 .37734986 .43499757 .35334779 .43499757 .33735658 .44599916 .31835938 .47299195 .31835938 .49499513 .31835938 .5269928 .3363495 .5269928 .37635804 .5269928 .42837525 .46798707 .4423828 .43399049 .4423828 .37599183 .4423828 .34098817 .38935853 .32899476 .36634828 .3039856 .43237306 .25 .4423828 .22099304 .4423828 .116989139 .4423828 .05999756 .3133545 .05999756 .28834535 .05999756 .27833558 .069992069 .27833558 .07199097 .27833558 .07998657 .27833558 .08299255 .28033448 .084991458 .28933717 .11898804 .39535523 .18499756 .42037965 .21899414 .42037965 .23799134 .42037965 .272995 .4113617 .272995 .35334779 .272995 .32235719 .2559967 .25532533 .21899414 .11528015 .20298767 .053268434 .16799927 .011245728 .12399292 .011245728 .117996219 .011245728 .09498596 .011245728 .07398987 .024276734 .09899902 .029266358 .12098694 .05027771 .12098694 .07827759 .12098694 .105270389 .09899902 .11328125 .083999637 .11328125 .053985597 .11328125 .0289917 .08728027 .0289917 .055267335 .0289917 .009246826 .07899475-.0107421879 .12298584-.0107421879 .18899536-.0107421879 .22499085 .059280397 .22799683 .0652771 .23999024 .028274537 .27598573-.0107421879 .33599855-.0107421879 .43899537-.0107421879 .49598695 .118270877 .49598695 .14328003 .49598695 .1532898 .4869995 .1532898 .48399354 .1532898 .47499085 .1532898 .47299195 .14929199 .47099305 .14228821 .43798829 .03527832 .36999513 .011245728 .33799745 .011245728 .29899598 .011245728 .2829895 .043273927 .2829895 .07727051 .2829895 .09927368 .2889862 .121276859 .2999878 .16529846L.33399964 .30233766Z"/>
<path id="font_4_3" d="M.48599244 .38136292C.48999024 .39537049 .48999024 .39736939 .48999024 .40437318 .48999024 .42237855 .47599793 .43138124 .46099855 .43138124 .45098878 .43138124 .43499757 .42536927 .42599488 .41036988 .42399598 .405365 .41600038 .37435914 .4119873 .35635377 .40499879 .33035279 .397995 .30334474 .3919983 .27633668L.34700013 .09628296C.34298707 .08126831 .2999878 .011245728 .23399353 .011245728 .18299866 .011245728 .17199707 .055267335 .17199707 .0922699 .17199707 .1382904 .18899536 .20030213 .22299195 .28833009 .23899842 .3293457 .24299622 .3403473 .24299622 .36035157 .24299622 .405365 .21099854 .4423828 .16099549 .4423828 .06599426 .4423828 .0289917 .29733277 .0289917 .28833009 .0289917 .27833558 .038986207 .27833558 .040985109 .27833558 .050994874 .27833558 .051986696 .28033448 .056991579 .29634095 .083999637 .3903656 .12399292 .42037965 .1579895 .42037965 .1659851 .42037965 .18299866 .42037965 .18299866 .3883667 .18299866 .36335755 .17298889 .3373413 .1659851 .31834413 .12599182 .21231079 .10798645 .1552887 .10798645 .10827637 .10798645 .019256592 .17098999-.0107421879 .22999573-.0107421879 .2689972-.0107421879 .30299378 .0062561037 .33099366 .03425598 .31799317-.017745972 .30599977-.06674194 .2659912-.11973572 .23999024-.15385437 .20199585-.18309021 .1559906-.18309021 .14199829-.18309021 .09700012-.18005371 .07998657-.14074707 .09599304-.14074707 .10899353-.14074707 .12298584-.1287384 .1329956-.11973572 .14299011-.10673523 .14299011-.08773804 .14299011-.056747438 .115997318-.052734376 .10598755-.052734376 .08299255-.052734376 .049987794-.068740848 .049987794-.11773682 .049987794-.16796875 .09399414-.20507813 .1559906-.20507813 .25898744-.20507813 .3619995-.11373901 .3899994-.00074768069L.48599244 .38136292Z"/>
<path id="font_4_1" d="M.43899537 .71199038C.44400025 .72499087 .44400025 .72898867 .44400025 .7299957 .44400025 .7409973 .43499757 .75 .42399598 .75 .4169922 .75 .4099884 .746994 .40699769 .7409973L.05999756-.21200562C.054992677-.2250061 .054992677-.2290039 .054992677-.23001099 .054992677-.24101258 .06399536-.25 .07499695-.25 .08799744-.25 .09098816-.24301148 .09700012-.22601319L.43899537 .71199038Z"/>
</defs>
<path transform="matrix(.80002406,0,0,-.800064,-71.656009,160.51638)" stroke-width=".3985" stroke-linecap="butt" stroke-miterlimit="10" stroke-linejoin="miter" fill="none" stroke="#bfbfbf" d="M97.13608 34.5848V195.98056M129.51477 34.5848V195.98056M161.89347 34.5848V195.98056M226.65085 34.5848V195.98056M259.02955 34.5848V195.98056M291.40824 34.5848V195.98056"/>
<path transform="matrix(.80002406,0,0,-.800064,-71.656009,160.51638)" stroke-width=".3985" stroke-linecap="butt" stroke-miterlimit="10" stroke-linejoin="miter" fill="none" stroke="#bfbfbf" d="M97.13608 34.5848H291.40824M97.13608 46.11307H291.40824M97.13608 57.64133H291.40824M97.13608 69.1696H291.40824M97.13608 80.69788H291.40824M97.13608 92.22614H291.40824M97.13608 103.75441H291.40824M97.13608 126.81094H291.40824M97.13608 138.33922H291.40824M97.13608 149.86748H291.40824M97.13608 161.39575H291.40824M97.13608 172.92401H291.40824M97.13608 184.45229H291.40824M97.13608 195.98056H291.40824"/>
<path transform="matrix(.80002406,0,0,-.800064,-71.656009,160.51638)" stroke-width=".19925" stroke-linecap="butt" stroke-miterlimit="10" stroke-linejoin="miter" fill="none" stroke="#7f807f" d="M97.13608 113.15651V117.40883M129.51477 113.15651V117.40883M161.89347 113.15651V117.40883M226.65085 113.15651V117.40883M259.02955 113.15651V117.40883M291.40824 113.15651V117.40883"/>
<path transform="matrix(.80002406,0,0,-.800064,-71.656009,160.51638)" stroke-width=".19925" stroke-linecap="butt" stroke-miterlimit="10" stroke-linejoin="miter" fill="none" stroke="#7f807f" d="M192.14627 34.5848H196.39803M192.14627 46.11307H196.39803M192.14627 57.64133H196.39803M192.14627 69.1696H196.39803M192.14627 80.69788H196.39803M192.14627 92.22614H196.39803M192.14627 103.75441H196.39803M192.14627 126.81094H196.39803M192.14627 138.33922H196.39803M192.14627 149.86748H196.39803M192.14627 161.39575H196.39803M192.14627 172.92401H196.39803M192.14627 184.45229H196.39803M192.14627 195.98056H196.39803"/>
<path transform="matrix(.80002406,0,0,-.800064,-71.656009,160.51638)" stroke-width=".3985" stroke-linecap="butt" stroke-miterlimit="10" stroke-linejoin="miter" fill="none" stroke="#000000" d="M97.13608 115.28267H289.4157"/>
<path transform="matrix(.80002406,0,0,-.800064,159.88352,68.28286)" d="M1.99252 0-1.19551 1.59401 0 0-1.19551-1.59401"/>
<path transform="matrix(.80002406,0,0,-.800064,-71.656009,160.51638)" stroke-width=".3985" stroke-linecap="butt" stroke-miterlimit="10" stroke-linejoin="miter" fill="none" stroke="#000000" d="M194.27216 34.5848V193.98804"/>
<path transform="matrix(0,-.800064,-.80002406,-0,83.76639,5.3135225)" d="M1.99252 0-1.19551 1.59401 0 0-1.19551-1.59401"/>
<use data-text="&#x2212;" xlink:href="#font_1_1" transform="matrix(8.727542,0,0,-8.727978,.47895814,78.677028)"/>
<use data-text="3" xlink:href="#font_2_3" transform="matrix(8.727542,0,0,-8.727978,7.2671625,78.677028)"/>
<use data-text="&#x2212;" xlink:href="#font_1_1" transform="matrix(8.727542,0,0,-8.727978,26.382935,78.677028)"/>
<use data-text="2" xlink:href="#font_2_2" transform="matrix(8.727542,0,0,-8.727978,33.17114,78.677028)"/>
<use data-text="&#x2212;" xlink:href="#font_1_1" transform="matrix(8.727542,0,0,-8.727978,52.28691,78.677028)"/>
<use data-text="1" xlink:href="#font_2_1" transform="matrix(8.727542,0,0,-8.727978,59.075117,78.677028)"/>
<use data-text="1" xlink:href="#font_2_1" transform="matrix(8.727542,0,0,-8.727978,107.48858,78.677028)"/>
<use data-text="2" xlink:href="#font_2_2" transform="matrix(8.727542,0,0,-8.727978,133.39176,78.677028)"/>
<use data-text="3" xlink:href="#font_2_3" transform="matrix(8.727542,0,0,-8.727978,159.29575,78.677028)"/>
<use data-text="&#x2212;" xlink:href="#font_1_1" transform="matrix(8.727542,0,0,-8.727978,67.84499,135.29515)"/>
<use data-text="7" xlink:href="#font_2_7" transform="matrix(8.727542,0,0,-8.727978,74.633197,135.29515)"/>
<use data-text="&#x2212;" xlink:href="#font_1_1" transform="matrix(8.727542,0,0,-8.727978,67.84499,126.07202)"/>
<use data-text="6" xlink:href="#font_2_6" transform="matrix(8.727542,0,0,-8.727978,74.633197,126.07202)"/>
<use data-text="&#x2212;" xlink:href="#font_1_1" transform="matrix(8.727542,0,0,-8.727978,67.84499,116.848079)"/>
<use data-text="5" xlink:href="#font_2_5" transform="matrix(8.727542,0,0,-8.727978,74.633197,116.848079)"/>
<use data-text="&#x2212;" xlink:href="#font_1_1" transform="matrix(8.727542,0,0,-8.727978,67.84499,107.62494)"/>
<use data-text="4" xlink:href="#font_2_4" transform="matrix(8.727542,0,0,-8.727978,74.633197,107.62494)"/>
<use data-text="&#x2212;" xlink:href="#font_1_1" transform="matrix(8.727542,0,0,-8.727978,67.84499,98.4018)"/>
<use data-text="3" xlink:href="#font_2_3" transform="matrix(8.727542,0,0,-8.727978,74.633197,98.4018)"/>
<use data-text="&#x2212;" xlink:href="#font_1_1" transform="matrix(8.727542,0,0,-8.727978,67.84499,89.177867)"/>
<use data-text="2" xlink:href="#font_2_2" transform="matrix(8.727542,0,0,-8.727978,74.633197,89.177867)"/>
<use data-text="&#x2212;" xlink:href="#font_1_1" transform="matrix(8.727542,0,0,-8.727978,67.84499,79.95473)"/>
<use data-text="1" xlink:href="#font_2_1" transform="matrix(8.727542,0,0,-8.727978,74.633197,79.95473)"/>
<use data-text="1" xlink:href="#font_2_1" transform="matrix(8.727542,0,0,-8.727978,74.6332,61.87168)"/>
<use data-text="2" xlink:href="#font_2_2" transform="matrix(8.727542,0,0,-8.727978,74.6332,52.648538)"/>
<use data-text="3" xlink:href="#font_2_3" transform="matrix(8.727542,0,0,-8.727978,74.6332,43.4254)"/>
<use data-text="4" xlink:href="#font_2_4" transform="matrix(8.727542,0,0,-8.727978,74.6332,34.20147)"/>
<use data-text="5" xlink:href="#font_2_5" transform="matrix(8.727542,0,0,-8.727978,74.6332,24.978333)"/>
<use data-text="6" xlink:href="#font_2_6" transform="matrix(8.727542,0,0,-8.727978,74.6332,15.755188)"/>
<use data-text="7" xlink:href="#font_2_7" transform="matrix(8.727542,0,0,-8.727978,74.6332,6.5320589)"/>
<g clip-path="url(#clip_3)">
<path transform="matrix(.80002406,0,0,-.800064,-71.656009,160.51638)" stroke-width=".79701" stroke-linecap="butt" stroke-miterlimit="10" stroke-linejoin="miter" fill="none" stroke="#0000ff" d="M197.51003 230.56536 198.27722 208.48065 199.04442 193.4985 199.81163 182.6654 200.57884 174.4688 201.34604 168.04987 202.11327 162.88636 202.88047 158.64395 203.64768 155.09555 204.41487 152.08437 205.18209 149.49625 205.94928 147.24825 206.71649 145.28038 207.4837 143.535 208.2509 141.9856 209.01811 140.59529 209.78533 139.34333 210.55254 138.21009 211.31974 137.17948 212.08695 136.2353 212.85414 135.36952 213.62136 134.57407 214.38855 133.83742 215.15576 133.1561 215.92298 132.5232 216.69019 131.9318 217.4574 131.3819 218.2246 130.8666 218.9918 130.3824 219.759 129.92818 220.52622 129.49933 221.29341 129.09699 222.06063 128.71541 222.82782 128.35459 223.59503 128.01334 224.36225 127.68707 225.12946 127.37927 225.89665 127.08647 226.66387 126.8062 227.43108 126.53955 228.19828 126.285 228.96549 126.04166 229.73268 125.80902 230.4999 125.58606 231.26709 125.37233 232.03432 125.16748 232.80152 124.97057 233.56873 124.7815 234.33594 124.59947 235.10314 124.42436 235.87035 124.25594 236.63755 124.09338 237.40476 123.93683 238.17195 123.78534 238.93917 123.63928 239.70638 123.49828 240.47359 123.36168 241.24079 123.22968 242.008 123.10207 242.77519 122.97849 243.5424 122.8587 244.3096 122.74237 245.07682 122.62975 245.84403 122.52057 246.61122 122.41452 247.37845 122.31145 248.14565 122.21129 248.91286 122.11407 249.68006 122.01944 250.44727 121.92744 251.21446 121.83788 251.98168 121.7506 252.74887 121.66588 253.51609 121.58308 254.28331 121.50262 255.0505 121.42412 255.81772 121.34769 256.58494 121.27275 257.35215 121.20001 258.11933 121.12901 258.88655 121.0595 259.65373 120.99168 260.42094 120.92563 261.18818 120.86084 261.95539 120.79756 262.72257 120.73576 263.48979 120.67525 264.25697 120.61621 265.0242 120.55833 265.7914 120.50163 266.5586 120.44641 267.3258 120.39223 268.093 120.33907 268.8602 120.2871 269.62745 120.23625 270.39466 120.1861 271.16184 120.13733 271.92906 120.08937 272.69627 120.04224 273.46348 119.99611 274.23069 119.95091 274.99794 119.90666 275.76506 119.86296 276.5323 119.82043 277.29945 119.77846 278.0667 119.7373 278.83396 119.69682 279.6011 119.65718 280.36833 119.61823 281.13548 119.57994 281.90275 119.54225 282.66999 119.50536 283.4371 119.46893 284.20436 119.43318 284.9715 119.39825 285.73878 119.36366 286.506 119.32956 287.27317 119.29634 288.0404 119.26338 288.80754 119.2311 289.57478 119.1994 290.34205 119.16817 291.1092 119.13737 291.87644 119.10695 292.6436 119.0772 293.41084 119.0478 294.1781 119.01897 294.9452 118.99039 295.71247 118.96227 296.4796 118.9347 297.24687 118.90761 298.0141 118.88065 298.78123 118.85425 299.54853 118.82831 300.31565 118.80258 301.0829 118.77745 301.85014 118.75244 302.61729 118.72778 303.38456 118.70369 304.15168 118.67981 304.9189 118.65619 305.68617 118.63303 306.4533 118.61018 307.22059 118.58748 307.9877 118.56511 308.75498 118.54309 309.5222 118.52142 310.28935 118.49997 311.0566 118.4789 311.82374 118.45801 312.591 118.4376 313.35823 118.4172 314.12538 118.39716 314.89265 118.3772 315.65977 118.35771 316.42704 118.33835 317.19429 118.31932 317.9614 118.30054 318.72865 118.28186 319.4958 118.26364 320.26307 118.24532 321.0303 118.22734 321.79743 118.2097 322.5647 118.19218 323.33183 118.17499 324.0991 118.1577 324.86634 118.14098 325.63349 118.12427 326.40074 118.1078 327.16786 118.09143 327.9351 118.07538 328.70237 118.05936 329.4695 118.04356 330.23677 118.028 331.00389 118.01256 331.77116 117.99747 332.5384 117.98235 333.30555 117.96736 334.07279 117.95273 334.8399 117.9382 335.60719 117.9238 336.37443 117.90948 337.14158 117.89522 337.90885 117.88136 338.67597 117.86765 339.4432 117.85393 340.21046 117.84033 340.9776 117.82695 341.74488 117.81381 342.512 117.80078 343.27925 117.78777 344.0465 117.77496 344.81364 117.76227 345.5809 117.74959 346.34803 117.73703 347.11528 117.72481 347.8825 117.7126 348.64967 117.7005 349.41694 117.68861 350.18406 117.67674 350.95133 117.66498 351.71855 117.65334 352.4857 117.64192 353.25297 117.63051 354.0201 117.6192 354.78736 117.60815 355.5546 117.59709 356.32173 117.58601 357.08897 117.57529 357.8561 117.56458 358.62339 117.55374 359.39064 117.54326 360.15776 117.53287 360.92503 117.5225 361.69215 117.51212 362.4594 117.50209 363.22666 117.49194 363.9938 117.48204 364.76106 117.47198 365.52818 117.46233 366.29545 117.45251 367.06269 117.44305 367.82984 117.43352 368.59709 117.42404 369.36424 117.41447 370.13148 117.40514 370.89875 117.39604 371.66587 117.38692 372.4331 117.3777 373.20024 117.36871 373.9675 117.35994 374.73478 117.35095 375.5019 117.34242 376.26918 117.33356 377.0363 117.32489 377.80354 117.31648 378.5708 117.30806 379.33793 117.29965 380.1052 117.29135 380.8723 117.28305 381.63957 117.27475 382.40684 117.26668 383.17399 117.2586 383.94123 117.25076 384.70835 117.24281 385.4756 117.23486 386.24284 117.22702 387.00999 117.2194 387.77726 117.21169 388.54438 117.20409"/>
<path transform="matrix(.80002406,0,0,-.800064,-71.656009,160.51638)" stroke-width=".79701" stroke-linecap="butt" stroke-miterlimit="10" stroke-linejoin="miter" fill="none" stroke="#ff0000" d="M197.51003 0 198.27722 22.08469 199.04442 37.06682 199.81163 47.89993 200.57884 56.09654 201.34604 62.51547 202.11327 67.67899 202.88047 71.92139 203.64768 75.46979 204.41487 78.48097 205.18209 81.06909 205.94928 83.3171 206.71649 85.28496 207.4837 87.03033 208.2509 88.57974 209.01811 89.97005 209.78533 91.22202 210.55254 92.35526 211.31974 93.38586 212.08695 94.33003 212.85414 95.19582 213.62136 95.99127 214.38855 96.72792 215.15576 97.40924 215.92298 98.04214 216.69019 98.63354 217.4574 99.18344 218.2246 99.69875 218.9918 100.18294 219.759 100.63716 220.52622 101.06601 221.29341 101.46835 222.06063 101.84993 222.82782 102.21075 223.59503 102.552 224.36225 102.87825 225.12946 103.18607 225.89665 103.47887 226.66387 103.75914 227.43108 104.02577 228.19828 104.28033 228.96549 104.52367 229.73268 104.7563 230.4999 104.97928 231.26709 105.193 232.03432 105.39786 232.80152 105.59477 233.56873 105.78384 234.33594 105.96587 235.10314 106.14098 235.87035 106.3094 236.63755 106.47195 237.40476 106.62851 238.17195 106.78 238.93917 106.92606 239.70638 107.06706 240.47359 107.20366 241.24079 107.33566 242.008 107.46326 242.77519 107.58685 243.5424 107.70663 244.3096 107.82295 245.07682 107.9356 245.84403 108.04477 246.61122 108.15082 247.37845 108.25389 248.14565 108.35405 248.91286 108.45126 249.68006 108.54588 250.44727 108.6379 251.21446 108.72746 251.98168 108.81473 252.74887 108.89946 253.51609 108.98224 254.28331 109.06271 255.0505 109.14122 255.81772 109.21765 256.58494 109.29257 257.35215 109.36533 258.11933 109.43633 258.88655 109.50584 259.65373 109.57365 260.42094 109.6397 261.18818 109.7045 261.95539 109.76778 262.72257 109.82957 263.48979 109.89009 264.25697 109.94913 265.0242 110.00699 265.7914 110.0637 266.5586 110.11893 267.3258 110.17311 268.093 110.22627 268.8602 110.27824 269.62745 110.32909 270.39466 110.37923 271.16184 110.428 271.92906 110.47597 272.69627 110.5231 273.46348 110.56923 274.23069 110.61443 274.99794 110.65868 275.76506 110.70238 276.5323 110.7449 277.29945 110.78687 278.0667 110.82802 278.83396 110.8685 279.6011 110.90816 280.36833 110.94711 281.13548 110.9854 281.90275 111.02309 282.66999 111.05998 283.4371 111.0964 284.20436 111.13216 284.9715 111.16707 285.73878 111.20168 286.506 111.23578 287.27317 111.26898 288.0404 111.30194 288.80754 111.33423 289.57478 111.36594 290.34205 111.39717 291.1092 111.42795 291.87644 111.45839 292.6436 111.48814 293.41084 111.51753 294.1781 111.54636 294.9452 111.57494 295.71247 111.60307 296.4796 111.63065 297.24687 111.65773 298.0141 111.6847 298.78123 111.71109 299.54853 111.73703 300.31565 111.76274 301.0829 111.78787 301.85014 111.8129 302.61729 111.83755 303.38456 111.86165 304.15168 111.88551 304.9189 111.90915 305.68617 111.93231 306.4533 111.95514 307.22059 111.97786 307.9877 112.00021 308.75498 112.02225 309.5222 112.04391 310.28935 112.06535 311.0566 112.08644 311.82374 112.10733 312.591 112.12773 313.35823 112.14813 314.12538 112.16818 314.89265 112.18814 315.65977 112.20763 316.42704 112.22699 317.19429 112.24602 317.9614 112.2648 318.72865 112.28348 319.4958 112.30168 320.26307 112.32002 321.0303 112.338 321.79743 112.35564 322.5647 112.37315 323.33183 112.39035 324.0991 112.40764 324.86634 112.42435 325.63349 112.44106 326.40074 112.45753 327.16786 112.4739 327.9351 112.48994 328.70237 112.50597 329.4695 112.52177 330.23677 112.53734 331.00389 112.55278 331.77116 112.56787 332.5384 112.583 333.30555 112.59798 334.07279 112.6126 334.8399 112.62714 335.60719 112.64154 336.37443 112.65585 337.14158 112.67012 337.90885 112.68398 338.67597 112.6977 339.4432 112.71141 340.21046 112.725 340.9776 112.73839 341.74488 112.75151 342.512 112.76456 343.27925 112.77757 344.0465 112.79037 344.81364 112.80307 345.5809 112.81575 346.34803 112.82831 347.11528 112.84053 347.8825 112.85274 348.64967 112.86484 349.41694 112.87672 350.18406 112.8886 350.95133 112.90036 351.71855 112.912 352.4857 112.92342 353.25297 112.93481 354.0201 112.94614 354.78736 112.95718 355.5546 112.96825 356.32173 112.97932 357.08897 112.99005 357.8561 113.00076 358.62339 113.0116 359.39064 113.02208 360.15776 113.03247 360.92503 113.04283 361.69215 113.0532 362.4594 113.06325 363.22666 113.07338 363.9938 113.0833 364.76106 113.09335 365.52818 113.10301 366.29545 113.11282 367.06269 113.12228 367.82984 113.13182 368.59709 113.1413 369.36424 113.15086 370.13148 113.1602 370.89875 113.1693 371.66587 113.17842 372.4331 113.18764 373.20024 113.19662 373.9675 113.2054 374.73478 113.21439 375.5019 113.22292 376.26918 113.23178 377.0363 113.24045 377.80354 113.24886 378.5708 113.25726 379.33793 113.26567 380.1052 113.27397 380.8723 113.28227 381.63957 113.29059 382.40684 113.29866 383.17399 113.30672 383.94123 113.31456 384.70835 113.32251 385.4756 113.33047 386.24284 113.33832 387.00999 113.34593 387.77726 113.35365 388.54438 113.36125"/>
<path transform="matrix(.80002406,0,0,-.800064,-71.656009,160.51638)" stroke-width=".79701" stroke-linecap="butt" stroke-miterlimit="10" stroke-linejoin="miter" fill="none" stroke="#0000ff" d="M0 113.36137 .7672 113.35365 1.5344 113.34593 2.3016 113.33832 3.0688 113.33047 3.83601 113.32251 4.60323 113.31456 5.37042 113.30672 6.13763 113.29866 6.90483 113.29059 7.67206 113.28227 8.43925 113.27397 9.20647 113.26567 9.97366 113.25726 10.74088 113.24886 11.50809 113.24045 12.27528 113.23178 13.0425 113.22292 13.8097 113.21439 14.5769 113.2054 15.34412 113.19662 16.11133 113.18764 16.87852 113.17842 17.64574 113.1693 18.41293 113.1602 19.18015 113.15086 19.94736 113.1413 20.71455 113.13182 21.48175 113.12228 22.24896 113.11282 23.01619 113.10301 23.78339 113.09335 24.5506 113.0833 25.3178 113.07338 26.085 113.06325 26.8522 113.0532 27.61942 113.04283 28.38661 113.03247 29.15382 113.02208 29.92102 113.0116 30.68825 113.00076 31.45546 112.99005 32.22266 112.97932 32.98987 112.96825 33.75706 112.95718 34.52428 112.94614 35.29147 112.93481 36.05869 112.92342 36.8259 112.912 37.59311 112.90036 38.36032 112.8886 39.12752 112.87672 39.89473 112.86484 40.66193 112.85274 41.42914 112.84053 42.19633 112.82831 42.96355 112.81575 43.73074 112.80307 44.49796 112.79037 45.26517 112.77757 46.03238 112.76456 46.79958 112.75151 47.56679 112.73839 48.334 112.725 49.1012 112.71141 49.86841 112.6977 50.6356 112.68398 51.40282 112.67012 52.17001 112.65585 52.93724 112.64154 53.70444 112.62714 54.47165 112.6126 55.23885 112.59798 56.00606 112.583 56.77327 112.56787 57.54047 112.55278 58.30768 112.53734 59.07487 112.52177 59.84209 112.50597 60.6093 112.48994 61.37651 112.4739 62.1437 112.45753 62.91092 112.44106 63.67813 112.42435 64.44533 112.40764 65.21252 112.39035 65.97974 112.37315 66.74693 112.35564 67.51414 112.338 68.28137 112.32002 69.04857 112.30168 69.81578 112.28348 70.58298 112.2648 71.35019 112.24602 72.11739 112.22699 72.8846 112.20763 73.6518 112.18814 74.419 112.16818 75.18623 112.14813 75.95343 112.12773 76.72064 112.10733 77.48788 112.08644 78.25502 112.06535 79.02228 112.04391 79.78941 112.02225 80.55666 112.00021 81.32391 111.97786 82.09105 111.95514 82.8583 111.93231 83.62544 111.90915 84.3927 111.88551 85.15994 111.86165 85.92708 111.83755 86.69434 111.8129 87.46147 111.78787 88.22873 111.76274 88.99597 111.73703 89.7631 111.71109 90.53038 111.6847 91.29752 111.65773 92.06476 111.63065 92.83202 111.60307 93.59915 111.57494 94.3664 111.54636 95.13353 111.51753 95.90079 111.48814 96.66805 111.45828 97.43517 111.42795 98.20244 111.39717 98.96957 111.36594 99.73683 111.33423 100.50407 111.30194 101.27121 111.26898 102.03847 111.23578 102.8056 111.20168 103.57286 111.16707 104.3401 111.13216 105.10724 111.0964 105.87451 111.05998 106.64165 111.02309 107.40889 110.9854 108.17615 110.94711 108.94328 110.90816 109.71053 110.8685 110.47766 110.82802 111.24492 110.78687 112.01216 110.7449 112.77931 110.70224 113.54657 110.65868 114.3137 110.61443 115.08096 110.56923 115.8482 110.5231 116.61534 110.47597 117.3826 110.428 118.14973 110.37912 118.91698 110.32909 119.68423 110.27824 120.45139 110.22627 121.21863 110.17311 121.98576 110.11893 122.75302 110.0637 123.52026 110.00688 124.2874 109.94913 125.05466 109.89009 125.8218 109.82957 126.58905 109.76778 127.3563 109.7045 128.12345 109.6397 128.8907 109.57365 129.65784 109.50584 130.42508 109.43633 131.19234 109.36533 131.95948 109.29257 132.72673 109.21765 133.49385 109.14122 134.26111 109.06271 135.02837 108.98224 135.79552 108.89946 136.56276 108.81473 137.3299 108.72746 138.09716 108.6379 138.8644 108.54588 139.63153 108.45126 140.39879 108.35405 141.16593 108.25389 141.93318 108.15082 142.70043 108.04477 143.46758 107.9356 144.23484 107.82295 145.00197 107.70663 145.76921 107.58685 146.53647 107.46326 147.3036 107.33566 148.07085 107.20366 148.83798 107.06706 149.60524 106.92606 150.37248 106.78 151.13964 106.62851 151.90689 106.47195 152.67403 106.3094 153.44129 106.14098 154.20853 105.96587 154.97566 105.78384 155.74292 105.59477 156.51006 105.39786 157.2773 105.193 158.04457 104.97928 158.8117 104.7563 159.57895 104.52367 160.34609 104.28033 161.11334 104.02577 161.8806 103.75914 162.64772 103.47887 163.41498 103.18607 164.18212 102.87825 164.94937 102.552 165.71663 102.21075 166.48377 101.84993 167.25102 101.46835 168.01816 101.06601 168.78542 100.63716 169.55266 100.18294 170.3198 99.69875 171.08705 99.18344 171.85419 98.63354 172.62143 98.04214 173.3887 97.40924 174.15584 96.72678 174.92308 95.99127 175.69022 95.19582 176.45748 94.33003 177.22472 93.38586 177.99185 92.35526 178.75911 91.22087 179.52625 89.97005 180.2935 88.57974 181.06076 87.02803 181.8279 85.2838 182.59516 83.3171 183.36229 81.06909 184.12953 78.48097 184.89679 75.46979 185.66393 71.92024 186.43117 67.67899 187.1983 62.51547 187.96558 56.09654 188.73282 47.89764 189.49996 37.06567 190.26721 22.08124 191.03435 0"/>
<path transform="matrix(.80002406,0,0,-.800064,-71.656009,160.51638)" stroke-width=".79701" stroke-linecap="butt" stroke-miterlimit="10" stroke-linejoin="miter" fill="none" stroke="#ff0000" d="M0 117.20396 .7672 117.21169 1.5344 117.2194 2.3016 117.22702 3.0688 117.23486 3.83601 117.24281 4.60323 117.25076 5.37042 117.2586 6.13763 117.26668 6.90483 117.27475 7.67206 117.28305 8.43925 117.29135 9.20647 117.29965 9.97366 117.30806 10.74088 117.31648 11.50809 117.32489 12.27528 117.33356 13.0425 117.34242 13.8097 117.35095 14.5769 117.35994 15.34412 117.36871 16.11133 117.3777 16.87852 117.38692 17.64574 117.39604 18.41293 117.40514 19.18015 117.41447 19.94736 117.42404 20.71455 117.43352 21.48175 117.44305 22.24896 117.45251 23.01619 117.46233 23.78339 117.47198 24.5506 117.48204 25.3178 117.49194 26.085 117.50209 26.8522 117.51212 27.61942 117.5225 28.38661 117.53287 29.15382 117.54326 29.92102 117.55374 30.68825 117.56458 31.45546 117.57529 32.22266 117.58601 32.98987 117.59709 33.75706 117.60815 34.52428 117.6192 35.29147 117.63051 36.05869 117.64192 36.8259 117.65334 37.59311 117.66498 38.36032 117.67674 39.12752 117.68861 39.89473 117.7005 40.66193 117.7126 41.42914 117.72481 42.19633 117.73703 42.96355 117.74959 43.73074 117.76227 44.49796 117.77496 45.26517 117.78777 46.03238 117.80078 46.79958 117.81381 47.56679 117.82695 48.334 117.84033 49.1012 117.85393 49.86841 117.86765 50.6356 117.88136 51.40282 117.89522 52.17001 117.90948 52.93724 117.9238 53.70444 117.9382 54.47165 117.95273 55.23885 117.96736 56.00606 117.98235 56.77327 117.99747 57.54047 118.01256 58.30768 118.028 59.07487 118.04356 59.84209 118.05936 60.6093 118.07538 61.37651 118.09143 62.1437 118.1078 62.91092 118.12427 63.67813 118.14098 64.44533 118.1577 65.21252 118.17499 65.97974 118.19218 66.74693 118.2097 67.51414 118.22734 68.28137 118.24532 69.04857 118.26364 69.81578 118.28186 70.58298 118.30054 71.35019 118.31932 72.11739 118.33835 72.8846 118.35771 73.6518 118.3772 74.419 118.39716 75.18623 118.4172 75.95343 118.4376 76.72064 118.45801 77.48788 118.4789 78.25502 118.49997 79.02228 118.52142 79.78941 118.54309 80.55666 118.56511 81.32391 118.58748 82.09105 118.61018 82.8583 118.63303 83.62544 118.65619 84.3927 118.67981 85.15994 118.70369 85.92708 118.72778 86.69434 118.75244 87.46147 118.77745 88.22873 118.80258 88.99597 118.82831 89.7631 118.85425 90.53038 118.88065 91.29752 118.90761 92.06476 118.9347 92.83202 118.96227 93.59915 118.99039 94.3664 119.01897 95.13353 119.0478 95.90079 119.0772 96.66805 119.10706 97.43517 119.13737 98.20244 119.16817 98.96957 119.1994 99.73683 119.2311 100.50407 119.26338 101.27121 119.29634 102.03847 119.32956 102.8056 119.36366 103.57286 119.39825 104.3401 119.43318 105.10724 119.46893 105.87451 119.50536 106.64165 119.54225 107.40889 119.57994 108.17615 119.61823 108.94328 119.65718 109.71053 119.69682 110.47766 119.7373 111.24492 119.77846 112.01216 119.82043 112.77931 119.8631 113.54657 119.90666 114.3137 119.95091 115.08096 119.99611 115.8482 120.04224 116.61534 120.08937 117.3826 120.13733 118.14973 120.1862 118.91698 120.23625 119.68423 120.2871 120.45139 120.33907 121.21863 120.39223 121.98576 120.44641 122.75302 120.50163 123.52026 120.55846 124.2874 120.61621 125.05466 120.67525 125.8218 120.73576 126.58905 120.79756 127.3563 120.86084 128.12345 120.92563 128.8907 120.99168 129.65784 121.0595 130.42508 121.12901 131.19234 121.20001 131.95948 121.27275 132.72673 121.34769 133.49385 121.42412 134.26111 121.50262 135.02837 121.58308 135.79552 121.66588 136.56276 121.7506 137.3299 121.83788 138.09716 121.92744 138.8644 122.01944 139.63153 122.11407 140.39879 122.21129 141.16593 122.31145 141.93318 122.41452 142.70043 122.52057 143.46758 122.62975 144.23484 122.74237 145.00197 122.8587 145.76921 122.97849 146.53647 123.10207 147.3036 123.22968 148.07085 123.36168 148.83798 123.49828 149.60524 123.63928 150.37248 123.78534 151.13964 123.93683 151.90689 124.09338 152.67403 124.25594 153.44129 124.42436 154.20853 124.59947 154.97566 124.7815 155.74292 124.97057 156.51006 125.16748 157.2773 125.37233 158.04457 125.58606 158.8117 125.80902 159.57895 126.04166 160.34609 126.285 161.11334 126.53955 161.8806 126.8062 162.64772 127.08647 163.41498 127.37927 164.18212 127.68707 164.94937 128.01334 165.71663 128.35459 166.48377 128.71541 167.25102 129.09699 168.01816 129.49933 168.78542 129.92818 169.55266 130.3824 170.3198 130.8666 171.08705 131.3819 171.85419 131.9318 172.62143 132.5232 173.3887 133.1561 174.15584 133.83856 174.92308 134.57407 175.69022 135.36952 176.45748 136.2353 177.22472 137.17948 177.99185 138.21009 178.75911 139.34445 179.52625 140.59529 180.2935 141.9856 181.06076 143.53731 181.8279 145.28153 182.59516 147.24825 183.36229 149.49625 184.12953 152.08437 184.89679 155.09555 185.66393 158.64508 186.43117 162.88636 187.1983 168.04987 187.96558 174.4688 188.73282 182.6677 189.49996 193.49967 190.26721 208.4841 191.03435 230.56536"/>
</g>
<use data-text="x" xlink:href="#font_4_2" transform="matrix(8.727542,0,0,-8.727978,153.42118,65.21435)"/>
<use data-text="y" xlink:href="#font_4_3" transform="matrix(8.727542,0,0,-8.727978,86.83434,10.545975)"/>
<path transform="matrix(.80002406,0,0,-.800064,-71.656009,160.51638)" d="M231.98389 159.34784H285.38105V190.9396H231.98389Z" fill="#ffffff"/>
<path transform="matrix(.80002406,0,0,-.800064,-71.656009,160.51638)" stroke-width=".3985" stroke-linecap="butt" stroke-miterlimit="10" stroke-linejoin="miter" fill="none" stroke="#000000" d="M231.98389 159.34784H285.38105V190.9396H231.98389Z"/>
<path transform="matrix(.80002406,0,0,-.800064,116.64646,14.868706)" stroke-width=".79701" stroke-linecap="butt" stroke-miterlimit="10" stroke-linejoin="miter" fill="none" stroke="#0000ff" d="M0 0H8.50412 17.00826"/>
<use data-text="1" xlink:href="#font_2_1" transform="matrix(8.727542,0,0,-8.727978,135.56064,17.487313)"/>
<use data-text="/" xlink:href="#font_4_1" transform="matrix(8.727542,0,0,-8.727978,139.92397,17.487313)"/>
<use data-text="x" xlink:href="#font_4_2" transform="matrix(8.727542,0,0,-8.727978,144.28774,17.487313)"/>
<path transform="matrix(.80002406,0,0,-.800064,116.64646,25.912003)" stroke-width=".79701" stroke-linecap="butt" stroke-miterlimit="10" stroke-linejoin="miter" fill="none" stroke="#ff0000" d="M0 0H8.50412 17.00826"/>
<use data-text="&#x2212;" xlink:href="#font_1_1" transform="matrix(8.727542,0,0,-8.727978,132.16614,28.53061)"/>
<use data-text="1" xlink:href="#font_2_1" transform="matrix(8.727542,0,0,-8.727978,138.95354,28.53061)"/>
<use data-text="/" xlink:href="#font_4_1" transform="matrix(8.727542,0,0,-8.727978,143.31768,28.53061)"/>
<use data-text="x" xlink:href="#font_4_2" transform="matrix(8.727542,0,0,-8.727978,147.68144,28.53061)"/>
</svg>
