<svg xmlns="http://www.w3.org/2000/svg" xmlns:xlink="http://www.w3.org/1999/xlink" xmlns:inkscape="http://www.inkscape.org/namespaces/inkscape" version="1.1" width="169" height="145" viewBox="0 0 169 145">
<defs>
<path id="font_1_1" d="M.2939911 .64004519C.2939911 .66400149 .2939911 .6660156 .2709961 .6660156 .20899964 .60227969 .12098694 .60227969 .08898926 .60227969V.57128909C.10899353 .57128909 .16799927 .57128909 .21998596 .5972748V.07902527C.21998596 .042999269 .21699524 .0309906 .1269989 .0309906H.09498596V0C.12998963 .0029907227 .21699524 .0029907227 .25698854 .0029907227 .29699708 .0029907227 .38398744 .0029907227 .4189911 0V.0309906H.3869934C.29699708 .0309906 .2939911 .041992189 .2939911 .07902527V.64004519Z"/>
<path id="font_1_2" d="M.1269989 .07699585 .23298645 .18003845C.3889923 .31811524 .44898988 .3721466 .44898988 .47216798 .44898988 .5860901 .35899354 .6660156 .23699951 .6660156 .12399292 .6660156 .049987794 .57411196 .049987794 .48516847 .049987794 .4291687 .099990848 .4291687 .102996829 .4291687 .11999512 .4291687 .15499878 .44117738 .15499878 .48217774 .15499878 .5081787 .13699341 .5341797 .101989749 .5341797 .09399414 .5341797 .09199524 .5341797 .08898926 .5331726 .11199951 .59806826 .1659851 .63500979 .22399903 .63500979 .31498719 .63500979 .35798646 .5541382 .35798646 .47216798 .35798646 .39215089 .30799867 .31311036 .25299073 .25108338L.06098938 .036987306C.049987794 .025985718 .049987794 .023986817 .049987794 0H.42099L.44898988 .17404175H.42399598C.4189911 .14402771 .4119873 .1000061 .4019928 .084991458 .394989 .07699585 .32899476 .07699585 .30699159 .07699585H.1269989Z"/>
<path id="font_1_3" d="M.2899933 .35191346C.37199403 .37893678 .42999269 .4490509 .42999269 .52809146 .42999269 .6100464 .34199525 .6660156 .24598694 .6660156 .14498902 .6660156 .068984989 .60606387 .068984989 .53009036 .068984989 .49710084 .09098816 .47808839 .11999512 .47808839 .15098572 .47808839 .17098999 .50009158 .17098999 .5290985 .17098999 .57910159 .12399292 .57910159 .10899353 .57910159 .13999939 .62802127 .20599365 .64100649 .24198914 .64100649 .2829895 .64100649 .33799745 .6190338 .33799745 .5290985 .33799745 .51708987 .33599855 .45906068 .30999757 .4149933 .27999879 .36691285 .24598694 .36390687 .22099304 .36291505 .21299744 .36190797 .18899536 .35990907 .18199158 .35990907 .17399597 .35890199 .16699219 .35791017 .16699219 .3479004 .16699219 .33691407 .17399597 .33691407 .19099427 .33691407H.23498535C.31698609 .33691407 .35398866 .2686615 .35398866 .17037964 .35398866 .034469606 .2849884 .0055389406 .24099732 .0055389406 .19799805 .0055389406 .12298584 .022491456 .08799744 .08137512 .12298584 .07637024 .1539917 .09837341 .1539917 .1363678 .1539917 .17237854 .1269989 .19238281 .09799194 .19238281 .07398987 .19238281 .041992189 .17837525 .041992189 .1343689 .041992189 .043441774 .1349945-.022460938 .24398804-.022460938 .3659973-.022460938 .45700074 .06838989 .45700074 .17037964 .45700074 .252594 .3939972 .33088685 .2899933 .35191346Z"/>
<path id="font_1_4" d="M.2939911 .16503906V.07800293C.2939911 .041992189 .2919922 .0309906 .21798706 .0309906H.19699097V0C.23799134 .0029907227 .2899933 .0029907227 .33198548 .0029907227 .37399293 .0029907227 .4269867 .0029907227 .46798707 0V.0309906H.44699098C.37298585 .0309906 .37098695 .041992189 .37098695 .07800293V.16503906H.47099305V.19602967H.37098695V.65075686C.37098695 .67074587 .37098695 .6767578 .35499574 .6767578 .34599305 .6767578 .34298707 .6767578 .33499146 .66474917L.027999878 .19602967V.16503906H.2939911M.2999878 .19602967H.055999757L.2999878 .5688019V.19602967Z"/>
<path id="font_1_5" d="M.44898988 .20022583C.44898988 .3193512 .36698915 .41944886 .25898744 .41944886 .21099854 .41944886 .16799927 .40345765 .13198853 .36842347V.5637665C.1519928 .5577698 .18499756 .55078127 .21699524 .55078127 .33999635 .55078127 .4099884 .6417694 .4099884 .6547699 .4099884 .6607666 .40699769 .6657715 .3999939 .6657715 .39898683 .6657715 .39698792 .6657715 .3919983 .66278079 .37199403 .6537781 .32299806 .6337738 .2559967 .6337738 .21598816 .6337738 .16999817 .6407776 .12298584 .6617737 .114990238 .66477969 .11299133 .66477969 .11099243 .66477969 .100997928 .66477969 .100997928 .6567688 .100997928 .6407776V.34439088C.100997928 .32637025 .100997928 .31835938 .114990238 .31835938 .12199402 .31835938 .12399292 .32136537 .12799073 .32736207 .13899231 .3433838 .17599488 .39746095 .25698854 .39746095 .30899049 .39746095 .33399964 .35139466 .34199525 .33337403 .35798646 .29632569 .3600006 .25727845 .3600006 .20722962 .3600006 .17222595 .3600006 .11222839 .33599855 .07035828 .31199647 .031463624 .2749939 .0055389406 .22898865 .0055389406 .1559906 .0055389406 .09899902 .058380128 .08198547 .11723328 .084991458 .1162262 .08799744 .115234378 .09899902 .115234378 .13198853 .115234378 .14898682 .14022827 .14898682 .16423035 .14898682 .18823242 .13198853 .21322632 .09899902 .21322632 .084991458 .21322632 .049987794 .20622254 .049987794 .16023255 .049987794 .07434082 .11898804-.022460938 .23098755-.022460938 .34700013-.022460938 .44898988 .073349 .44898988 .20022583Z"/>
<path id="font_1_6" d="M.13198853 .327713V.35173036C.13198853 .6047821 .2559967 .64100649 .30699159 .64100649 .33099366 .64100649 .37298585 .634964 .394989 .6007538 .37998963 .6007538 .33999635 .6007538 .33999635 .5557556 .33999635 .524765 .3639984 .5097656 .38598634 .5097656 .4019928 .5097656 .43199159 .51875308 .43199159 .5577545 .43199159 .6178589 .3880005 .6660156 .30499269 .6660156 .1769867 .6660156 .041992189 .5367584 .041992189 .31570436 .041992189 .048553468 .1579895-.022460938 .25099183-.022460938 .3619995-.022460938 .45700074 .07156372 .45700074 .2036438 .45700074 .33070375 .36799623 .4267578 .25698854 .4267578 .18899536 .4267578 .1519928 .37573243 .13198853 .327713M.25099183 .0055389406C.18798828 .0055389406 .1579895 .06556702 .1519928 .080566409 .13398743 .127594 .13398743 .2076416 .13398743 .22564698 .13398743 .30369569 .1659851 .40374757 .2559967 .40374757 .27198792 .40374757 .31799317 .40374757 .34899903 .34172059 .36698915 .30470277 .36698915 .2536621 .36698915 .20463562 .36698915 .15661621 .36698915 .10658264 .34999085 .0705719 .31999208 .010528564 .27398683 .0055389406 .25099183 .0055389406Z"/>
<clipPath id="clip_2">
<path transform="matrix(.800064,0,0,-.80001607,10.611771,132.83473)" d="M0 0H194.27216V161.3918H0Z"/>
</clipPath>
<path id="font_3_1" d="M.33399964 .30233766C.33999635 .32835389 .36299134 .42037965 .43299867 .42037965 .43798829 .42037965 .46199037 .42037965 .48298646 .40734864 .45498658 .402359 .43499757 .37734986 .43499757 .35334779 .43499757 .33735658 .44599916 .31835938 .47299195 .31835938 .49499513 .31835938 .5269928 .3363495 .5269928 .37635804 .5269928 .42837525 .46798707 .4423828 .43399049 .4423828 .37599183 .4423828 .34098817 .38935853 .32899476 .36634828 .3039856 .43237306 .25 .4423828 .22099304 .4423828 .116989139 .4423828 .05999756 .3133545 .05999756 .28834535 .05999756 .27833558 .069992069 .27833558 .07199097 .27833558 .07998657 .27833558 .08299255 .28033448 .084991458 .28933717 .11898804 .39535523 .18499756 .42037965 .21899414 .42037965 .23799134 .42037965 .272995 .4113617 .272995 .35334779 .272995 .32235719 .2559967 .25532533 .21899414 .11528015 .20298767 .053268434 .16799927 .011245728 .12399292 .011245728 .117996219 .011245728 .09498596 .011245728 .07398987 .024276734 .09899902 .029266358 .12098694 .05027771 .12098694 .07827759 .12098694 .105270389 .09899902 .11328125 .083999637 .11328125 .053985597 .11328125 .0289917 .08728027 .0289917 .055267335 .0289917 .009246826 .07899475-.0107421879 .12298584-.0107421879 .18899536-.0107421879 .22499085 .059280397 .22799683 .0652771 .23999024 .028274537 .27598573-.0107421879 .33599855-.0107421879 .43899537-.0107421879 .49598695 .118270877 .49598695 .14328003 .49598695 .1532898 .4869995 .1532898 .48399354 .1532898 .47499085 .1532898 .47299195 .14929199 .47099305 .14228821 .43798829 .03527832 .36999513 .011245728 .33799745 .011245728 .29899598 .011245728 .2829895 .043273927 .2829895 .07727051 .2829895 .09927368 .2889862 .121276859 .2999878 .16529846L.33399964 .30233766Z"/>
<path id="font_3_2" d="M.48599244 .38136292C.48999024 .39537049 .48999024 .39736939 .48999024 .40437318 .48999024 .42237855 .47599793 .43138124 .46099855 .43138124 .45098878 .43138124 .43499757 .42536927 .42599488 .41036988 .42399598 .405365 .41600038 .37435914 .4119873 .35635377 .40499879 .33035279 .397995 .30334474 .3919983 .27633668L.34700013 .09628296C.34298707 .08126831 .2999878 .011245728 .23399353 .011245728 .18299866 .011245728 .17199707 .055267335 .17199707 .0922699 .17199707 .1382904 .18899536 .20030213 .22299195 .28833009 .23899842 .3293457 .24299622 .3403473 .24299622 .36035157 .24299622 .405365 .21099854 .4423828 .16099549 .4423828 .06599426 .4423828 .0289917 .29733277 .0289917 .28833009 .0289917 .27833558 .038986207 .27833558 .040985109 .27833558 .050994874 .27833558 .051986696 .28033448 .056991579 .29634095 .083999637 .3903656 .12399292 .42037965 .1579895 .42037965 .1659851 .42037965 .18299866 .42037965 .18299866 .3883667 .18299866 .36335755 .17298889 .3373413 .1659851 .31834413 .12599182 .21231079 .10798645 .1552887 .10798645 .10827637 .10798645 .019256592 .17098999-.0107421879 .22999573-.0107421879 .2689972-.0107421879 .30299378 .0062561037 .33099366 .03425598 .31799317-.017745972 .30599977-.06674194 .2659912-.11973572 .23999024-.15385437 .20199585-.18309021 .1559906-.18309021 .14199829-.18309021 .09700012-.18005371 .07998657-.14074707 .09599304-.14074707 .10899353-.14074707 .12298584-.1287384 .1329956-.11973572 .14299011-.10673523 .14299011-.08773804 .14299011-.056747438 .115997318-.052734376 .10598755-.052734376 .08299255-.052734376 .049987794-.068740848 .049987794-.11773682 .049987794-.16796875 .09399414-.20507813 .1559906-.20507813 .25898744-.20507813 .3619995-.11373901 .3899994-.00074768069L.48599244 .38136292Z"/>
</defs>
<path transform="matrix(.800064,0,0,-.80001607,10.611771,132.83473)" stroke-width=".3985" stroke-linecap="butt" stroke-miterlimit="10" stroke-linejoin="miter" fill="none" stroke="#bfbfbf" d="M32.3787 0V161.3918M64.75739 0V161.3918M97.13608 0V161.3918M129.51477 0V161.3918M161.89347 0V161.3918M194.27216 0V161.3918"/>
<path transform="matrix(.800064,0,0,-.80001607,10.611771,132.83473)" stroke-width=".3985" stroke-linecap="butt" stroke-miterlimit="10" stroke-linejoin="miter" fill="none" stroke="#bfbfbf" d="M0 32.27835H194.27216M0 64.55672H194.27216M0 96.83507H194.27216M0 129.11344H194.27216M0 161.3918H194.27216"/>
<path transform="matrix(.800064,0,0,-.80001607,10.611771,132.83473)" stroke-width=".19925" stroke-linecap="butt" stroke-miterlimit="10" stroke-linejoin="miter" fill="none" stroke="#7f807f" d="M32.3787-2.12592V2.12592M64.75739-2.12592V2.12592M97.13608-2.12592V2.12592M129.51477-2.12592V2.12592M161.89347-2.12592V2.12592M194.27216-2.12592V2.12592"/>
<path transform="matrix(.800064,0,0,-.80001607,10.611771,132.83473)" stroke-width=".19925" stroke-linecap="butt" stroke-miterlimit="10" stroke-linejoin="miter" fill="none" stroke="#7f807f" d="M-2.12587 32.27835H2.12587M-2.12587 64.55672H2.12587M-2.12587 96.83507H2.12587M-2.12587 129.11344H2.12587M-2.12587 161.3918H2.12587"/>
<path transform="matrix(.800064,0,0,-.80001607,10.611771,132.83473)" stroke-width=".3985" stroke-linecap="butt" stroke-miterlimit="10" stroke-linejoin="miter" fill="none" stroke="#000000" d="M0 0H192.27964"/>
<path transform="matrix(.800064,0,0,-.80001607,164.44779,132.83473)" d="M1.99252 0-1.19551 1.59401 0 0-1.19551-1.59401"/>
<path transform="matrix(.800064,0,0,-.80001607,10.611771,132.83473)" stroke-width=".3985" stroke-linecap="butt" stroke-miterlimit="10" stroke-linejoin="miter" fill="none" stroke="#000000" d="M0 0V159.39928"/>
<path transform="matrix(0,-.80001607,-.800064,-0,10.611771,5.312752)" d="M1.99252 0-1.19551 1.59401 0 0-1.19551-1.59401"/>
<use data-text="1" xlink:href="#font_1_1" transform="matrix(8.727978,0,0,-8.727455,34.33447,143.22855)"/>
<use data-text="2" xlink:href="#font_1_2" transform="matrix(8.727978,0,0,-8.727455,60.23974,143.22855)"/>
<use data-text="3" xlink:href="#font_1_3" transform="matrix(8.727978,0,0,-8.727455,86.14501,143.22855)"/>
<use data-text="4" xlink:href="#font_1_4" transform="matrix(8.727978,0,0,-8.727455,112.04949,143.22855)"/>
<use data-text="5" xlink:href="#font_1_5" transform="matrix(8.727978,0,0,-8.727455,137.95478,143.22855)"/>
<use data-text="6" xlink:href="#font_1_6" transform="matrix(8.727978,0,0,-8.727455,163.86003,143.22855)"/>
<use data-text="1" xlink:href="#font_1_1" transform="matrix(8.727978,0,0,-8.727455,1.478239,109.82387)"/>
<use data-text="2" xlink:href="#font_1_2" transform="matrix(8.727978,0,0,-8.727455,1.478239,84.00015)"/>
<use data-text="3" xlink:href="#font_1_3" transform="matrix(8.727978,0,0,-8.727455,1.478239,58.17724)"/>
<use data-text="4" xlink:href="#font_1_4" transform="matrix(8.727978,0,0,-8.727455,1.478239,32.354318)"/>
<use data-text="5" xlink:href="#font_1_5" transform="matrix(8.727978,0,0,-8.727455,1.478239,6.5306017)"/>
<g clip-path="url(#clip_2)">
<path transform="matrix(.800064,0,0,-.80001607,10.611771,132.83473)" stroke-width=".79701" stroke-linecap="butt" stroke-miterlimit="10" stroke-linejoin="miter" fill="none" stroke="#0000ff" d="M64.75739 64.55672 65.01743 64.68633 65.2775 64.81595 65.53757 64.94559 65.79762 65.07523 66.05768 65.20485 66.31773 65.33447 66.57782 65.46411 66.83786 65.59373 67.09793 65.72336 67.358 65.85298 67.61806 65.98262 67.87811 66.11224 68.13818 66.24187 68.39825 66.37149 68.6583 66.50113 68.91838 66.63075 69.17844 66.76038 69.43849 66.89 69.69855 67.01965 69.95862 67.14928 70.21869 67.2789 70.47873 67.40852 70.73882 67.53816 70.99887 67.66779 71.25893 67.79741 71.519 67.92703 71.77905 68.05667 72.03912 68.1863 72.29918 68.31592 72.55925 68.44554 72.8193 68.57518 73.07936 68.7048 73.33943 68.83443 73.59949 68.96407 73.85956 69.0937 74.11963 69.22333 74.37968 69.35295 74.63974 69.48257 74.89981 69.61221 75.15987 69.74184 75.41992 69.87146 75.68001 70.00108 75.94006 70.13072 76.20012 70.26035 76.46017 70.38997 76.72025 70.51959 76.9803 70.64923 77.24036 70.77885 77.50044 70.9085 77.7605 71.03812 78.02055 71.16776 78.28062 71.29738 78.54068 71.427 78.80074 71.55663 79.0608 71.68626 79.32088 71.81589 79.58093 71.94551 79.84099 72.07513 80.10106 72.20477 80.36111 72.3344 80.62117 72.46402 80.88124 72.59364 81.14131 72.7233 81.40137 72.85292 81.66144 72.98254 81.9215 73.11217 82.18155 73.2418 82.44162 73.37143 82.70168 73.50105 82.96175 73.63068 83.2218 73.76031 83.48187 73.88994 83.74193 74.01956 84.00198 74.14919 84.26205 74.27882 84.52211 74.40845 84.78218 74.53807 85.04225 74.66771 85.3023 74.79735 85.56236 74.92697 85.82243 75.0566 86.08249 75.18623 86.34254 75.31586 86.60262 75.44548 86.86269 75.5751 87.12274 75.70474 87.3828 75.83437 87.64287 75.96399 87.90292 76.09361 88.16298 76.22325 88.42307 76.35287 88.68312 76.4825 88.94318 76.61214 89.20325 76.74178 89.4633 76.8714 89.72336 77.00102 89.98341 77.13065 90.2435 77.26028 90.50356 77.38991 90.76361 77.51953 91.0237 77.64917 91.28374 77.7788 91.54381 77.90842 91.80385 78.03804 92.06393 78.16766 92.324 78.29732 92.58405 78.42693 92.84412 78.55656 93.10416 78.68617 93.36423 78.81583 93.62431 78.94545 93.88435 79.07507 94.14442 79.2047 94.40448 79.33432 94.66455 79.46396 94.92462 79.5936 95.18468 79.7232 95.44475 79.85284 95.70479 79.98247 95.96487 80.11209 96.22495 80.24173 96.48497 80.37135 96.74506 80.50099 97.0051 80.6306 97.26517 80.76022 97.52524 80.88988 97.7853 81.0195 98.04538 81.14914 98.3054 81.27873 98.56549 81.40839 98.82556 81.53801 99.0856 81.66765 99.34569 81.79727 99.60573 81.9269 99.8658 82.05652 100.12587 82.18616 100.38593 82.31577 100.646 82.44543 100.90602 82.57503 101.16612 82.70467 101.4262 82.83429 101.68623 82.96391 101.94632 83.09357 102.20634 83.22318 102.46642 83.3528 102.72652 83.48245 102.98654 83.61205 103.24661 83.7417 103.50665 83.8713 103.76674 84.00096 104.02681 84.13058 104.28685 84.2602 104.54694 84.38982 104.80698 84.51947 105.06705 84.6491 105.32713 84.77873 105.58716 84.90833 105.84724 85.03798 106.10728 85.1676 106.36737 85.29724 106.62744 85.42686 106.88747 85.55649 107.14757 85.68611 107.4076 85.81575 107.66766 85.94537 107.92775 86.07501 108.18779 86.20462 108.44786 86.33426 108.70792 86.46388 108.96799 86.59352 109.22806 86.72316 109.48811 86.85277 109.74818 86.98239 110.00821 87.11201 110.2683 87.24164 110.52838 87.37129 110.78842 87.5009 111.0485 87.63055 111.30853 87.76015 111.5686 87.88979 111.82869 88.01944 112.08873 88.14906 112.3488 88.27869 112.60884 88.4083 112.86893 88.53793 113.129 88.66759 113.38904 88.7972 113.64911 88.92682 113.90916 89.05644 114.16924 89.18608 114.4293 89.3157 114.68936 89.44533 114.94943 89.57498 115.20946 89.70459 115.46956 89.83421 115.72963 89.96384 115.98965 90.09349 116.24976 90.22311 116.50978 90.35272 116.76985 90.48236 117.02992 90.612 117.28998 90.74162 117.55005 90.87126 117.81009 91.00087 118.07018 91.13051 118.33025 91.26013 118.59029 91.38977 118.85037 91.5194 119.1104 91.64902 119.37048 91.77864 119.63057 91.90828 119.89061 92.03789 120.15068 92.16756 120.4107 92.29715 120.67079 92.42679 120.93088 92.55641 121.1909 92.68604 121.45099 92.81566 121.71103 92.9453 121.9711 93.07492 122.23119 93.20457 122.49123 93.33418 122.7513 93.4638 123.01135 93.59343 123.27142 93.72308 123.5315 93.8527 123.79153 93.98232 124.05162 94.11194 124.31165 94.2416 124.57173 94.37122 124.83182 94.50085 125.09184 94.63045 125.35193 94.7601 125.61197 94.88972 125.87204 95.01936 126.13211 95.14899 126.39217 95.27861 126.65224 95.40823 126.91228 95.53787 127.17235 95.6675 127.43243 95.79713 127.69247 95.92674 127.95255 96.05638 128.2126 96.186 128.47267 96.31566 128.73274 96.44528 128.9928 96.57489 129.25287 96.70451 129.5129 96.83414"/>
<path transform="matrix(.800064,0,0,-.80001607,10.611771,132.83473)" stroke-width=".79701" stroke-linecap="butt" stroke-miterlimit="10" stroke-linejoin="miter" fill="none" stroke="#0000ff" d="M129.51477 96.83507 129.64479 96.64063 129.77483 96.4462 129.90485 96.25174 130.03488 96.0573 130.16493 95.86285 130.29496 95.6684 130.42499 95.47397 130.55503 95.2795 130.68506 95.08507 130.81508 94.89064 130.94512 94.69618 131.07517 94.50174 131.20519 94.3073 131.33522 94.11284 131.46524 93.91841 131.59528 93.72394 131.72531 93.52951 131.85536 93.33507 131.98538 93.14063 132.11542 92.94618 132.24546 92.75174 132.37548 92.55728 132.50551 92.36284 132.63555 92.16838 132.76558 91.97395 132.89562 91.77951 133.02565 91.58505 133.15567 91.39063 133.2857 91.19617 133.41574 91.00172 133.54579 90.80728 133.67581 90.61282 133.80585 90.4184 133.93587 90.22395 134.0659 90.0295 134.19594 89.83505 134.32596 89.64061 134.45601 89.44617 134.58605 89.25172 134.71608 89.05727 134.8461 88.86284 134.97614 88.6684 135.10617 88.47394 135.2362 88.2795 135.36624 88.08505 135.49628 87.89061 135.6263 87.69617 135.75634 87.50171 135.88637 87.30728 136.01639 87.11284 136.14644 86.91838 136.27648 86.72394 136.4065 86.5295 136.53653 86.33504 136.66657 86.14061 136.79659 85.94615 136.92664 85.75172 137.05667 85.55728 137.18669 85.36282 137.31673 85.16838 137.44676 84.97394 137.5768 84.77948 137.70682 84.58505 137.83687 84.3906 137.96689 84.19617 138.09693 84.00171 138.22696 83.80727 138.35698 83.61282 138.48702 83.41837 138.61707 83.22392 138.7471 83.0295 138.87712 82.83504 139.00716 82.6406 139.13719 82.44615 139.26721 82.25171 139.39725 82.05727 139.5273 81.86281 139.65732 81.66837 139.78736 81.47394 139.91739 81.27948 140.04741 81.08504 140.17745 80.89058 140.3075 80.69615 140.43752 80.50171 140.56755 80.30725 140.69759 80.11281 140.8276 79.91838 140.95764 79.72392 141.08768 79.52948 141.21772 79.33502 141.34775 79.1406 141.47779 78.94615 141.60782 78.7517 141.73784 78.55725 141.86788 78.36282 141.99793 78.16837 142.12795 77.97392 142.25798 77.77946 142.388 77.58504 142.51804 77.39058 142.64807 77.19612 142.77809 77.00171 142.90816 76.80724 143.03816 76.61282 143.16822 76.41837 143.29825 76.22389 143.42827 76.02948 143.5583 75.83502 143.68834 75.6406 143.81838 75.44614 143.94841 75.25168 144.07843 75.05725 144.20847 74.8628 144.33849 74.66837 144.46852 74.4739 144.59859 74.27946 144.7286 74.08502 144.85865 73.89058 144.98867 73.69614 145.1187 73.5017 145.24874 73.30724 145.37877 73.11281 145.5088 72.91835 145.63883 72.72392 145.76886 72.52946 145.8989 72.335 146.02892 72.14058 146.15897 71.94612 146.28899 71.75171 146.41904 71.55724 146.54907 71.36278 146.6791 71.16837 146.80913 70.97389 146.93915 70.77948 147.0692 70.585 147.19924 70.39056 147.32926 70.19614 147.45929 70.00168 147.58931 69.80725 147.71935 69.6128 147.8494 69.41833 147.97943 69.2239 148.10947 69.02945 148.23949 68.83502 148.36952 68.64058 148.49956 68.4461 148.62958 68.25168 148.75963 68.05722 148.88965 67.8628 149.01969 67.66835 149.14972 67.47388 149.27974 67.27946 149.40978 67.085 149.5398 66.89056 149.66986 66.69612 149.7999 66.50165 149.92992 66.30724 150.05995 66.1128 150.18997 65.91835 150.32 65.72389 150.45005 65.52945 150.58008 65.335 150.71012 65.14055 150.84014 64.94612 150.97017 64.75168 151.10022 64.55722 151.23023 64.36278 151.36029 64.16833 151.49031 63.9739 151.62035 63.77943 151.75038 63.58499 151.8804 63.39056 152.01044 63.1961 152.14046 63.00168 152.27051 62.80722 152.40055 62.61276 152.53057 62.41833 152.66062 62.22388 152.79062 62.02945 152.92066 61.83499 153.05072 61.64055 153.18074 61.44612 153.31078 61.25165 153.4408 61.05722 153.57083 60.86276 153.70087 60.66832 153.83089 60.47389 153.96094 60.27943 154.09096 60.085 154.221 59.89055 154.35105 59.69609 154.48107 59.50166 154.6111 59.3072 154.74112 59.11278 154.87117 58.91832 155.0012 58.72386 155.13123 58.52943 155.26126 58.33499 155.39128 58.14055 155.52132 57.94609 155.65137 57.75163 155.78139 57.55722 155.91143 57.36276 156.04145 57.16832 156.1715 56.97388 156.30153 56.77942 156.43157 56.58499 156.5616 56.39053 156.69162 56.1961 156.82166 56.00165 156.95169 55.80719 157.08171 55.61276 157.21175 55.4183 157.34178 55.22389 157.47182 55.02942 157.60186 54.83498 157.73188 54.64053 157.86193 54.44608 157.99195 54.25166 158.122 54.05719 158.25203 53.86275 158.38205 53.66832 158.51209 53.47386 158.6421 53.27943 158.77214 53.08496 158.90218 52.89052 159.03221 52.6961 159.16226 52.50163 159.29227 52.30722 159.4223 52.11275 159.55236 51.91829 159.68238 51.72388 159.81243 51.5294 159.94245 51.33499 160.07248 51.14053 160.20252 50.94608 160.33254 50.75165 160.46257 50.55717 160.59259 50.36276 160.72264 50.1683 160.85269 49.97383 160.98271 49.77942 161.11273 49.58498 161.24275 49.39053 161.3728 49.19609 161.50286 49.00162 161.63288 48.80719 161.76291 48.61275 161.89293 48.4183"/>
</g>
<use data-text="x" xlink:href="#font_3_1" transform="matrix(8.727978,0,0,-8.727455,157.98517,129.76667)"/>
<use data-text="y" xlink:href="#font_3_2" transform="matrix(8.727978,0,0,-8.727455,13.6800169,10.544281)"/>
</svg>
